G04*
G04 #@! TF.GenerationSoftware,Altium Limited,Altium Designer,22.5.1 (42)*
G04*
G04 Layer_Color=16711935*
%FSLAX43Y43*%
%MOMM*%
G71*
G04*
G04 #@! TF.SameCoordinates,2A2A3854-17DD-444F-B545-0734B4948F52*
G04*
G04*
G04 #@! TF.FilePolarity,Positive*
G04*
G01*
G75*
%ADD12C,0.150*%
%ADD13C,0.200*%
%ADD15C,0.076*%
%ADD54C,0.000*%
%ADD55C,0.100*%
%ADD56C,0.025*%
D12*
X97345Y63250D02*
G03*
X97345Y63250I-1345J0D01*
G01*
X45095Y65500D02*
G03*
X45095Y65500I-1345J0D01*
G01*
X108595Y57650D02*
G03*
X108595Y57650I-1345J0D01*
G01*
X66095Y71750D02*
G03*
X66095Y71750I-1345J0D01*
G01*
X61095D02*
G03*
X61095Y71750I-1345J0D01*
G01*
X60095Y58000D02*
G03*
X60095Y58000I-1345J0D01*
G01*
X12345Y57900D02*
G03*
X12345Y57900I-1345J0D01*
G01*
X143845Y63750D02*
G03*
X143845Y63750I-1345J0D01*
G01*
D13*
X134075Y73100D02*
Y75300D01*
X135425D01*
Y73100D02*
Y75300D01*
X134075Y73100D02*
X135425D01*
X137750Y75925D02*
X139850D01*
Y74575D02*
Y75925D01*
X137750Y74575D02*
X139850D01*
X137750D02*
Y75925D01*
X81400Y58575D02*
Y59925D01*
X79200D02*
X81400D01*
X79200Y58575D02*
Y59925D01*
Y58575D02*
X81400D01*
X90520Y60775D02*
X91480D01*
X90520Y59025D02*
Y60775D01*
Y59025D02*
X91480D01*
Y60775D01*
X89020Y64875D02*
X89980D01*
Y66625D01*
X89020D02*
X89980D01*
X89020Y64875D02*
Y66625D01*
X35325Y72100D02*
X36675D01*
Y74300D01*
X35325D02*
X36675D01*
X35325Y72100D02*
Y74300D01*
X24475Y68976D02*
X25725D01*
Y70976D01*
X24475D02*
X25725D01*
X24475Y68976D02*
Y70976D01*
X83550Y64375D02*
X84950D01*
Y66525D01*
X83550D02*
X84950D01*
X83550Y64375D02*
Y66525D01*
X28125Y69151D02*
X29375D01*
Y71161D01*
X28125D02*
X29375D01*
X28125Y69151D02*
Y71161D01*
X38750Y74925D02*
X40850D01*
Y73575D02*
Y74925D01*
X38750Y73575D02*
X40850D01*
X38750D02*
Y74925D01*
X40125Y53424D02*
X41375D01*
Y55424D01*
X40125D02*
X41375D01*
X40125Y53424D02*
Y55424D01*
X131050Y63675D02*
X132450D01*
Y65825D01*
X131050D02*
X132450D01*
X131050Y63675D02*
Y65825D01*
X135145Y64125D02*
X136105D01*
Y65875D01*
X135145D02*
X136105D01*
X135145Y64125D02*
Y65875D01*
X109520Y64125D02*
X110480D01*
Y65875D01*
X109520D02*
X110480D01*
X109520Y64125D02*
Y65875D01*
X114050Y63675D02*
X115450D01*
Y65825D01*
X114050D02*
X115450D01*
X114050Y63675D02*
Y65825D01*
X121625Y69476D02*
X122875D01*
Y71476D01*
X121625D02*
X122875D01*
X121625Y69476D02*
Y71476D01*
X125025Y69651D02*
X126275D01*
Y71661D01*
X125025D02*
X126275D01*
X125025Y69651D02*
Y71661D01*
X140625Y54326D02*
Y56326D01*
X141875D01*
Y54326D02*
Y56326D01*
X140625Y54326D02*
X141875D01*
X137375Y54226D02*
Y56226D01*
X138625D01*
Y54226D02*
Y56226D01*
X137375Y54226D02*
X138625D01*
X136520Y60625D02*
X137480D01*
X136520Y58875D02*
Y60625D01*
Y58875D02*
X137480D01*
Y60625D01*
X127800Y58325D02*
Y59675D01*
X125600D02*
X127800D01*
X125600Y58325D02*
Y59675D01*
Y58325D02*
X127800D01*
X115325Y57600D02*
X116675D01*
Y59800D01*
X115325D02*
X116675D01*
X115325Y57600D02*
Y59800D01*
X111325Y57600D02*
Y59800D01*
X112675D01*
Y57600D02*
Y59800D01*
X111325Y57600D02*
X112675D01*
X112274Y53625D02*
Y54875D01*
X110274D02*
X112274D01*
X110274Y53625D02*
Y54875D01*
Y53625D02*
X112274D01*
X63123Y57950D02*
X64473D01*
Y60150D01*
X63123D02*
X64473D01*
X63123Y57950D02*
Y60150D01*
X68300Y64425D02*
X69700D01*
Y66575D01*
X68300D02*
X69700D01*
X68300Y64425D02*
Y66575D01*
X63770Y64875D02*
X64730D01*
Y66625D01*
X63770D02*
X64730D01*
X63770Y64875D02*
Y66625D01*
X74225Y69976D02*
X75475D01*
Y71976D01*
X74225D02*
X75475D01*
X74225Y69976D02*
Y71976D01*
X77875Y70151D02*
X79125D01*
Y72161D01*
X77875D02*
X79125D01*
X77875Y70151D02*
Y72161D01*
X87625Y54076D02*
X88875D01*
Y56076D01*
X87625D02*
X88875D01*
X87625Y54076D02*
Y56076D01*
X91625Y53976D02*
X92875D01*
Y55976D01*
X91625D02*
X92875D01*
X91625Y53976D02*
Y55976D01*
X68325Y57950D02*
X69675D01*
Y60150D01*
X68325D02*
X69675D01*
X68325Y57950D02*
Y60150D01*
X88500Y75175D02*
X90600D01*
Y73825D02*
Y75175D01*
X88500Y73825D02*
X90600D01*
X88500D02*
Y75175D01*
X85075Y72350D02*
X86425D01*
Y74550D01*
X85075D02*
X86425D01*
X85075Y72350D02*
Y74550D01*
X64073Y54125D02*
Y55375D01*
X62073D02*
X64073D01*
X62073Y54125D02*
Y55375D01*
Y54125D02*
X64073D01*
X18825Y57850D02*
X20175D01*
Y60050D01*
X18825D02*
X20175D01*
X18825Y57850D02*
Y60050D01*
X10270Y63875D02*
X11230D01*
Y65625D01*
X10270D02*
X11230D01*
X10270Y63875D02*
Y65625D01*
X16274Y54625D02*
Y55875D01*
X14274D02*
X16274D01*
X14274Y54625D02*
Y55875D01*
Y54625D02*
X16274D01*
X15325Y57850D02*
X16675D01*
Y60050D01*
X15325D02*
X16675D01*
X15325Y57850D02*
Y60050D01*
X31526Y57566D02*
Y58916D01*
X29326D02*
X31526D01*
X29326Y57566D02*
Y58916D01*
Y57566D02*
X31526D01*
X17300Y63425D02*
X18700D01*
Y65575D01*
X17300D02*
X18700D01*
X17300Y63425D02*
Y65575D01*
X33800Y63400D02*
Y65550D01*
X35200D01*
Y63400D02*
Y65550D01*
X33800Y63400D02*
X35200D01*
X40980Y58125D02*
Y59875D01*
X40020Y58125D02*
X40980D01*
X40020D02*
Y59875D01*
X40980D01*
X44625Y53524D02*
Y55524D01*
X45875D01*
Y53524D02*
Y55524D01*
X44625Y53524D02*
X45875D01*
X38520Y63850D02*
Y65600D01*
X39480D01*
Y63850D02*
Y65600D01*
X38520Y63850D02*
X39480D01*
D15*
X28685Y63290D02*
X27839Y64136D01*
X28685D02*
X27839Y63290D01*
X28685Y63713D02*
X27839D01*
X28262Y64136D02*
Y63290D01*
X124935Y63540D02*
X124089Y64386D01*
X124935D02*
X124089Y63540D01*
X124935Y63963D02*
X124089D01*
X124512Y64386D02*
Y63540D01*
X78435Y64265D02*
X77589Y65111D01*
X78435D02*
X77589Y64265D01*
X78435Y64688D02*
X77589D01*
X78012Y65111D02*
Y64265D01*
D54*
X27555Y63001D02*
G03*
X26945Y63001I-305J0D01*
G01*
X123805Y63251D02*
G03*
X123195Y63251I-305J0D01*
G01*
X77305Y63976D02*
G03*
X76695Y63976I-305J0D01*
G01*
D55*
X132275Y58825D02*
Y61025D01*
X133725Y58825D02*
Y61025D01*
X132275Y58825D02*
X133725D01*
X132275Y61025D02*
X133725D01*
X130025Y78830D02*
Y83660D01*
X139555Y78830D02*
Y83660D01*
X130025D02*
X139555D01*
X130025Y78830D02*
X139555D01*
X116880Y75450D02*
Y82441D01*
X116280Y82180D02*
X116880Y82441D01*
X116280Y83211D02*
X116880Y82950D01*
X116280Y82180D02*
Y83210D01*
X116880Y82950D02*
Y83550D01*
Y75450D02*
X127040D01*
X116880Y83550D02*
X127040D01*
Y75450D02*
Y77600D01*
X127041Y77602D02*
X127640Y77340D01*
Y78370D01*
X127041Y78108D02*
X127640Y78370D01*
X127041Y78108D02*
Y83519D01*
X84775Y61175D02*
X86225D01*
X84775Y58975D02*
X86225D01*
Y61175D01*
X84775Y58975D02*
Y61175D01*
X33985Y78830D02*
Y83660D01*
X43515Y78830D02*
Y83660D01*
X33985D02*
X43515D01*
X33985Y78830D02*
X43515D01*
X20880Y75700D02*
Y82691D01*
X20280Y82430D02*
X20880Y82691D01*
X20280Y83461D02*
X20880Y83200D01*
X20280Y82430D02*
Y83460D01*
X20880Y83200D02*
Y83800D01*
Y75700D02*
X31040D01*
X20880Y83800D02*
X31040D01*
Y75700D02*
Y77850D01*
X31041Y77852D02*
X31640Y77590D01*
Y78620D01*
X31041Y78358D02*
X31640Y78620D01*
X31041Y78358D02*
Y83769D01*
X121525Y59025D02*
Y60475D01*
X119325Y59025D02*
Y60475D01*
Y59025D02*
X121525D01*
X119325Y60475D02*
X121525D01*
X57130Y75700D02*
Y82691D01*
X56530Y82430D02*
X57130Y82691D01*
X56530Y83461D02*
X57130Y83200D01*
X56530Y82430D02*
Y83460D01*
X57130Y83200D02*
Y83800D01*
Y75700D02*
X67290D01*
X57130Y83800D02*
X67290D01*
Y75700D02*
Y77850D01*
X67291Y77852D02*
X67890Y77590D01*
Y78620D01*
X67291Y78358D02*
X67890Y78620D01*
X67291Y78358D02*
Y83769D01*
X75025Y59375D02*
Y60825D01*
X72825Y59375D02*
Y60825D01*
Y59375D02*
X75025D01*
X72825Y60825D02*
X75025D01*
X70460Y75700D02*
Y82691D01*
X69860Y82430D02*
X70460Y82691D01*
X69860Y83461D02*
X70460Y83200D01*
X69860Y82430D02*
Y83460D01*
X70460Y83200D02*
Y83800D01*
Y75700D02*
X80620D01*
X70460Y83800D02*
X80620D01*
Y75700D02*
Y77850D01*
X80621Y77852D02*
X81220Y77590D01*
Y78620D01*
X80621Y78358D02*
X81220Y78620D01*
X80621Y78358D02*
Y83769D01*
X83775Y78830D02*
Y83660D01*
X93305Y78830D02*
Y83660D01*
X83775D02*
X93305D01*
X83775Y78830D02*
X93305D01*
X25275Y59275D02*
Y60725D01*
X23075Y59275D02*
Y60725D01*
Y59275D02*
X25275D01*
X23075Y60725D02*
X25275D01*
X35775Y60275D02*
X37225D01*
X35775Y58075D02*
X37225D01*
Y60275D01*
X35775Y58075D02*
Y60275D01*
D56*
X28749Y63322D02*
Y63728D01*
Y63322D02*
X29701D01*
Y63728D01*
X28749D02*
X29701D01*
X28749Y63972D02*
Y64378D01*
Y63972D02*
X29701D01*
Y64378D01*
X28749D02*
X29701D01*
X28749Y64622D02*
Y65028D01*
Y64622D02*
X29701D01*
Y65028D01*
X28749D02*
X29701D01*
X28749Y65272D02*
Y65678D01*
Y65272D02*
X29701D01*
Y65678D01*
X28749D02*
X29701D01*
X25751Y65272D02*
Y65678D01*
X24799D02*
X25751D01*
X24799Y65272D02*
Y65678D01*
Y65272D02*
X25751D01*
Y64622D02*
Y65028D01*
X24799D02*
X25751D01*
X24799Y64622D02*
Y65028D01*
Y64622D02*
X25751D01*
Y63972D02*
Y64378D01*
X24799D02*
X25751D01*
X24799Y63972D02*
Y64378D01*
Y63972D02*
X25751D01*
Y63322D02*
Y63728D01*
X24799D02*
X25751D01*
X24799Y63322D02*
Y63728D01*
Y63322D02*
X25751D01*
Y65999D02*
X28749D01*
X25751Y63001D02*
Y65999D01*
Y63001D02*
X28749D01*
Y65999D01*
X124999Y63251D02*
Y66249D01*
X122001Y63251D02*
X124999D01*
X122001D02*
Y66249D01*
X124999D01*
X121049Y63572D02*
X122001D01*
X121049D02*
Y63978D01*
X122001D01*
Y63572D02*
Y63978D01*
X121049Y64222D02*
X122001D01*
X121049D02*
Y64628D01*
X122001D01*
Y64222D02*
Y64628D01*
X121049Y64872D02*
X122001D01*
X121049D02*
Y65278D01*
X122001D01*
Y64872D02*
Y65278D01*
X121049Y65522D02*
X122001D01*
X121049D02*
Y65928D01*
X122001D01*
Y65522D02*
Y65928D01*
X124999D02*
X125951D01*
Y65522D02*
Y65928D01*
X124999Y65522D02*
X125951D01*
X124999D02*
Y65928D01*
Y65278D02*
X125951D01*
Y64872D02*
Y65278D01*
X124999Y64872D02*
X125951D01*
X124999D02*
Y65278D01*
Y64628D02*
X125951D01*
Y64222D02*
Y64628D01*
X124999Y64222D02*
X125951D01*
X124999D02*
Y64628D01*
Y63978D02*
X125951D01*
Y63572D02*
Y63978D01*
X124999Y63572D02*
X125951D01*
X124999D02*
Y63978D01*
X78499Y63976D02*
Y66974D01*
X75501Y63976D02*
X78499D01*
X75501D02*
Y66974D01*
X78499D01*
X74549Y64297D02*
X75501D01*
X74549D02*
Y64703D01*
X75501D01*
Y64297D02*
Y64703D01*
X74549Y64947D02*
X75501D01*
X74549D02*
Y65353D01*
X75501D01*
Y64947D02*
Y65353D01*
X74549Y65597D02*
X75501D01*
X74549D02*
Y66003D01*
X75501D01*
Y65597D02*
Y66003D01*
X74549Y66247D02*
X75501D01*
X74549D02*
Y66653D01*
X75501D01*
Y66247D02*
Y66653D01*
X78499D02*
X79451D01*
Y66247D02*
Y66653D01*
X78499Y66247D02*
X79451D01*
X78499D02*
Y66653D01*
Y66003D02*
X79451D01*
Y65597D02*
Y66003D01*
X78499Y65597D02*
X79451D01*
X78499D02*
Y66003D01*
Y65353D02*
X79451D01*
Y64947D02*
Y65353D01*
X78499Y64947D02*
X79451D01*
X78499D02*
Y65353D01*
Y64703D02*
X79451D01*
Y64297D02*
Y64703D01*
X78499Y64297D02*
X79451D01*
X78499D02*
Y64703D01*
M02*
