G04*
G04 #@! TF.GenerationSoftware,Altium Limited,Altium Designer,22.5.1 (42)*
G04*
G04 Layer_Color=2752767*
%FSLAX43Y43*%
%MOMM*%
G71*
G04*
G04 #@! TF.SameCoordinates,2A2A3854-17DD-444F-B545-0734B4948F52*
G04*
G04*
G04 #@! TF.FilePolarity,Positive*
G04*
G01*
G75*
%ADD58C,0.068*%
%ADD59C,0.051*%
%ADD60C,0.034*%
D58*
X99953Y36430D02*
G03*
X99953Y36430I-203J0D01*
G01*
Y33890D02*
G03*
X99953Y33890I-203J0D01*
G01*
Y31350D02*
G03*
X99953Y31350I-203J0D01*
G01*
Y28810D02*
G03*
X99953Y28810I-203J0D01*
G01*
Y26270D02*
G03*
X99953Y26270I-203J0D01*
G01*
X132453Y81250D02*
G03*
X132453Y81250I-203J0D01*
G01*
X134993D02*
G03*
X134993Y81250I-203J0D01*
G01*
X137533D02*
G03*
X137533Y81250I-203J0D01*
G01*
X36413Y81250D02*
G03*
X36413Y81250I-203J0D01*
G01*
X38953D02*
G03*
X38953Y81250I-203J0D01*
G01*
X41493D02*
G03*
X41493Y81250I-203J0D01*
G01*
X153203Y36430D02*
G03*
X153203Y36430I-203J0D01*
G01*
Y33890D02*
G03*
X153203Y33890I-203J0D01*
G01*
Y31350D02*
G03*
X153203Y31350I-203J0D01*
G01*
Y28810D02*
G03*
X153203Y28810I-203J0D01*
G01*
Y26270D02*
G03*
X153203Y26270I-203J0D01*
G01*
X46703Y36430D02*
G03*
X46703Y36430I-203J0D01*
G01*
Y33890D02*
G03*
X46703Y33890I-203J0D01*
G01*
Y31350D02*
G03*
X46703Y31350I-203J0D01*
G01*
Y28810D02*
G03*
X46703Y28810I-203J0D01*
G01*
Y26270D02*
G03*
X46703Y26270I-203J0D01*
G01*
X86203Y81250D02*
G03*
X86203Y81250I-203J0D01*
G01*
X88743D02*
G03*
X88743Y81250I-203J0D01*
G01*
X91283D02*
G03*
X91283Y81250I-203J0D01*
G01*
D59*
X90597Y39047D02*
Y39453D01*
X91003D01*
Y39047D01*
X90597D01*
Y23247D02*
Y23653D01*
X91003D01*
Y23247D01*
X90597D01*
X64797Y39047D02*
Y39453D01*
X65203D01*
Y39047D01*
X64797D01*
Y23247D02*
Y23653D01*
X65203D01*
Y23247D01*
X64797D01*
X155797Y79797D02*
Y80203D01*
X156203D01*
Y79797D01*
X155797D01*
X155898Y79898D02*
Y80102D01*
X156102D01*
Y79898D01*
X155898D01*
X155797Y5047D02*
Y5453D01*
X156203D01*
Y5047D01*
X155797D01*
X155898Y5148D02*
Y5352D01*
X156102D01*
Y5148D01*
X155898D01*
X4797Y79797D02*
Y80203D01*
X5203D01*
Y79797D01*
X4797D01*
X4898Y79898D02*
Y80102D01*
X5102D01*
Y79898D01*
X4898D01*
X4797Y5047D02*
Y5453D01*
X5203D01*
Y5047D01*
X4797D01*
X4898Y5148D02*
Y5352D01*
X5102D01*
Y5148D01*
X4898D01*
X119217Y79297D02*
X119318Y79500D01*
X119217Y79703D01*
X119420Y79602D01*
X119623Y79703D01*
X119522Y79500D01*
X119623Y79297D01*
X119420Y79398D01*
X119217Y79297D01*
X124297D02*
X124398Y79500D01*
X124297Y79703D01*
X124500Y79602D01*
X124703Y79703D01*
X124602Y79500D01*
X124703Y79297D01*
X124500Y79398D01*
X124297Y79297D01*
X96000Y63047D02*
X96102Y63148D01*
X96203D01*
X96102Y63250D01*
X96203Y63352D01*
X96102D01*
X96000Y63453D01*
X95898Y63352D01*
X95797D01*
X95898Y63250D01*
X95797Y63148D01*
X95898D01*
X96000Y63047D01*
X43750Y65297D02*
X43852Y65398D01*
X43953D01*
X43852Y65500D01*
X43953Y65602D01*
X43852D01*
X43750Y65703D01*
X43648Y65602D01*
X43547D01*
X43648Y65500D01*
X43547Y65398D01*
X43648D01*
X43750Y65297D01*
X23217Y79547D02*
X23318Y79750D01*
X23217Y79953D01*
X23420Y79852D01*
X23623Y79953D01*
X23522Y79750D01*
X23623Y79547D01*
X23420Y79648D01*
X23217Y79547D01*
X28297D02*
X28398Y79750D01*
X28297Y79953D01*
X28500Y79852D01*
X28703Y79953D01*
X28602Y79750D01*
X28703Y79547D01*
X28500Y79648D01*
X28297Y79547D01*
X143847Y39047D02*
Y39453D01*
X144253D01*
Y39047D01*
X143847D01*
Y23247D02*
Y23653D01*
X144253D01*
Y23247D01*
X143847D01*
X118047Y39047D02*
Y39453D01*
X118453D01*
Y39047D01*
X118047D01*
Y23247D02*
Y23653D01*
X118453D01*
Y23247D01*
X118047D01*
X37347Y39047D02*
Y39453D01*
X37753D01*
Y39047D01*
X37347D01*
Y23247D02*
Y23653D01*
X37753D01*
Y23247D01*
X37347D01*
X11547Y39047D02*
Y39453D01*
X11953D01*
Y39047D01*
X11547D01*
Y23247D02*
Y23653D01*
X11953D01*
Y23247D01*
X11547D01*
X11000Y57697D02*
X11102Y57798D01*
X11203D01*
X11102Y57900D01*
X11203Y58002D01*
X11102D01*
X11000Y58103D01*
X10898Y58002D01*
X10797D01*
X10898Y57900D01*
X10797Y57798D01*
X10898D01*
X11000Y57697D01*
X107250Y57447D02*
X107352Y57548D01*
X107453D01*
X107352Y57650D01*
X107453Y57752D01*
X107352D01*
X107250Y57853D01*
X107148Y57752D01*
X107047D01*
X107148Y57650D01*
X107047Y57548D01*
X107148D01*
X107250Y57447D01*
X59467Y79547D02*
X59568Y79750D01*
X59467Y79953D01*
X59670Y79852D01*
X59873Y79953D01*
X59772Y79750D01*
X59873Y79547D01*
X59670Y79648D01*
X59467Y79547D01*
X64547D02*
X64648Y79750D01*
X64547Y79953D01*
X64750Y79852D01*
X64953Y79953D01*
X64852Y79750D01*
X64953Y79547D01*
X64750Y79648D01*
X64547Y79547D01*
X64750Y71547D02*
X64852Y71648D01*
X64953D01*
X64852Y71750D01*
X64953Y71852D01*
X64852D01*
X64750Y71953D01*
X64648Y71852D01*
X64547D01*
X64648Y71750D01*
X64547Y71648D01*
X64648D01*
X64750Y71547D01*
X59750D02*
X59852Y71648D01*
X59953D01*
X59852Y71750D01*
X59953Y71852D01*
X59852D01*
X59750Y71953D01*
X59648Y71852D01*
X59547D01*
X59648Y71750D01*
X59547Y71648D01*
X59648D01*
X59750Y71547D01*
X58750Y57797D02*
X58852Y57898D01*
X58953D01*
X58852Y58000D01*
X58953Y58102D01*
X58852D01*
X58750Y58203D01*
X58648Y58102D01*
X58547D01*
X58648Y58000D01*
X58547Y57898D01*
X58648D01*
X58750Y57797D01*
X72797Y79547D02*
X72898Y79750D01*
X72797Y79953D01*
X73000Y79852D01*
X73203Y79953D01*
X73102Y79750D01*
X73203Y79547D01*
X73000Y79648D01*
X72797Y79547D01*
X77877D02*
X77978Y79750D01*
X77877Y79953D01*
X78080Y79852D01*
X78283Y79953D01*
X78182Y79750D01*
X78283Y79547D01*
X78080Y79648D01*
X77877Y79547D01*
X142500Y63547D02*
X142602Y63648D01*
X142703D01*
X142602Y63750D01*
X142703Y63852D01*
X142602D01*
X142500Y63953D01*
X142398Y63852D01*
X142297D01*
X142398Y63750D01*
X142297Y63648D01*
X142398D01*
X142500Y63547D01*
X158547Y23750D02*
X158750Y23953D01*
X158953Y23750D01*
X158750Y23547D01*
X158547Y23750D01*
X152085Y23714D02*
X152288Y23917D01*
X152491Y23714D01*
X152288Y23511D01*
X152085Y23714D01*
X104797Y23750D02*
X105000Y23953D01*
X105203Y23750D01*
X105000Y23547D01*
X104797Y23750D01*
X98247Y23700D02*
X98450Y23903D01*
X98653Y23700D01*
X98450Y23497D01*
X98247Y23700D01*
X52047Y23750D02*
X52250Y23953D01*
X52453Y23750D01*
X52250Y23547D01*
X52047Y23750D01*
X44997Y23700D02*
X45200Y23903D01*
X45403Y23700D01*
X45200Y23497D01*
X44997Y23700D01*
X146297Y64500D02*
X146500Y64703D01*
X146703Y64500D01*
X146500Y64297D01*
X146297Y64500D01*
X157644Y58250D02*
X157847Y58453D01*
X158051Y58250D01*
X157847Y58047D01*
X157644Y58250D01*
X157747Y69750D02*
X157950Y69953D01*
X158153Y69750D01*
X157950Y69547D01*
X157747Y69750D01*
X144797Y82250D02*
X145000Y82453D01*
X145203Y82250D01*
X145000Y82047D01*
X144797Y82250D01*
X133717Y68500D02*
X133920Y68703D01*
X134123Y68500D01*
X133920Y68297D01*
X133717Y68500D01*
X105547Y73000D02*
X105750Y73203D01*
X105953Y73000D01*
X105750Y72797D01*
X105547Y73000D01*
X111797Y80250D02*
X112000Y80453D01*
X112203Y80250D01*
X112000Y80047D01*
X111797Y80250D01*
X95797Y79250D02*
X96000Y79453D01*
X96203Y79250D01*
X96000Y79047D01*
X95797Y79250D01*
X92047Y64500D02*
X92250Y64703D01*
X92453Y64500D01*
X92250Y64297D01*
X92047Y64500D01*
X56047Y53500D02*
X56250Y53703D01*
X56453Y53500D01*
X56250Y53297D01*
X56047Y53500D01*
X48797Y64000D02*
X49000Y64203D01*
X49203Y64000D01*
X49000Y63797D01*
X48797Y64000D01*
X94547Y68547D02*
X94648D01*
X94750Y68648D01*
X94852Y68547D01*
X94953D01*
Y68648D01*
X94852Y68750D01*
X94953Y68852D01*
Y68953D01*
X94852D01*
X94750Y68852D01*
X94648Y68953D01*
X94547D01*
Y68852D01*
X94648Y68750D01*
X94547Y68648D01*
Y68547D01*
X47497Y55247D02*
X47598D01*
X47700Y55348D01*
X47802Y55247D01*
X47903D01*
Y55348D01*
X47802Y55450D01*
X47903Y55552D01*
Y55653D01*
X47802D01*
X47700Y55552D01*
X47598Y55653D01*
X47497D01*
Y55552D01*
X47598Y55450D01*
X47497Y55348D01*
Y55247D01*
X45547Y58797D02*
X45648D01*
X45750Y58898D01*
X45852Y58797D01*
X45953D01*
Y58898D01*
X45852Y59000D01*
X45953Y59102D01*
Y59203D01*
X45852D01*
X45750Y59102D01*
X45648Y59203D01*
X45547D01*
Y59102D01*
X45648Y59000D01*
X45547Y58898D01*
Y58797D01*
X49797Y80297D02*
X49898D01*
X50000Y80398D01*
X50102Y80297D01*
X50203D01*
Y80398D01*
X50102Y80500D01*
X50203Y80602D01*
Y80703D01*
X50102D01*
X50000Y80602D01*
X49898Y80703D01*
X49797D01*
Y80602D01*
X49898Y80500D01*
X49797Y80398D01*
Y80297D01*
X19047Y81797D02*
X19148D01*
X19250Y81898D01*
X19352Y81797D01*
X19453D01*
Y81898D01*
X19352Y82000D01*
X19453Y82102D01*
Y82203D01*
X19352D01*
X19250Y82102D01*
X19148Y82203D01*
X19047D01*
Y82102D01*
X19148Y82000D01*
X19047Y81898D01*
Y81797D01*
X12297Y73547D02*
X12398D01*
X12500Y73648D01*
X12602Y73547D01*
X12703D01*
Y73648D01*
X12602Y73750D01*
X12703Y73852D01*
Y73953D01*
X12602D01*
X12500Y73852D01*
X12398Y73953D01*
X12297D01*
Y73852D01*
X12398Y73750D01*
X12297Y73648D01*
Y73547D01*
X8797Y70047D02*
X8898D01*
X9000Y70148D01*
X9102Y70047D01*
X9203D01*
Y70148D01*
X9102Y70250D01*
X9203Y70352D01*
Y70453D01*
X9102D01*
X9000Y70352D01*
X8898Y70453D01*
X8797D01*
Y70352D01*
X8898Y70250D01*
X8797Y70148D01*
Y70047D01*
X8297Y53547D02*
X8398D01*
X8500Y53648D01*
X8602Y53547D01*
X8703D01*
Y53648D01*
X8602Y53750D01*
X8703Y53852D01*
Y53953D01*
X8602D01*
X8500Y53852D01*
X8398Y53953D01*
X8297D01*
Y53852D01*
X8398Y53750D01*
X8297Y53648D01*
Y53547D01*
X21297Y48547D02*
X21398D01*
X21500Y48648D01*
X21602Y48547D01*
X21703D01*
Y48648D01*
X21602Y48750D01*
X21703Y48852D01*
Y48953D01*
X21602D01*
X21500Y48852D01*
X21398Y48953D01*
X21297D01*
Y48852D01*
X21398Y48750D01*
X21297Y48648D01*
Y48547D01*
X152599Y44594D02*
X152701D01*
X152802Y44696D01*
X152904Y44594D01*
X153005D01*
Y44696D01*
X152904Y44798D01*
X153005Y44899D01*
Y45001D01*
X152904D01*
X152802Y44899D01*
X152701Y45001D01*
X152599D01*
Y44899D01*
X152701Y44798D01*
X152599Y44696D01*
Y44594D01*
X127288Y48147D02*
X127390D01*
X127491Y48248D01*
X127593Y48147D01*
X127694D01*
Y48248D01*
X127593Y48350D01*
X127694Y48452D01*
Y48553D01*
X127593D01*
X127491Y48452D01*
X127390Y48553D01*
X127288D01*
Y48452D01*
X127390Y48350D01*
X127288Y48248D01*
Y48147D01*
X99163Y42399D02*
X99265D01*
X99366Y42501D01*
X99468Y42399D01*
X99569D01*
Y42501D01*
X99468Y42603D01*
X99569Y42704D01*
Y42806D01*
X99468D01*
X99366Y42704D01*
X99265Y42806D01*
X99163D01*
Y42704D01*
X99265Y42603D01*
X99163Y42501D01*
Y42399D01*
X73443Y47631D02*
X73545D01*
X73646Y47733D01*
X73748Y47631D01*
X73849D01*
Y47733D01*
X73748Y47834D01*
X73849Y47936D01*
Y48038D01*
X73748D01*
X73646Y47936D01*
X73545Y48038D01*
X73443D01*
Y47936D01*
X73545Y47834D01*
X73443Y47733D01*
Y47631D01*
X47047Y43297D02*
X47148D01*
X47250Y43398D01*
X47352Y43297D01*
X47453D01*
Y43398D01*
X47352Y43500D01*
X47453Y43602D01*
Y43703D01*
X47352D01*
X47250Y43602D01*
X47148Y43703D01*
X47047D01*
Y43602D01*
X47148Y43500D01*
X47047Y43398D01*
Y43297D01*
X135148Y54398D02*
Y54297D01*
X135352D01*
Y54398D01*
X135453D01*
Y54602D01*
X135352D01*
Y54703D01*
X135148D01*
Y54602D01*
X135047D01*
Y54398D01*
X135148D01*
X130047Y55797D02*
X130148D01*
X130250Y55898D01*
X130352Y55797D01*
X130453D01*
Y55898D01*
X130352Y56000D01*
X130453Y56102D01*
Y56203D01*
X130352D01*
X130250Y56102D01*
X130148Y56203D01*
X130047D01*
Y56102D01*
X130148Y56000D01*
X130047Y55898D01*
Y55797D01*
X85348Y54148D02*
Y54047D01*
X85552D01*
Y54148D01*
X85653D01*
Y54352D01*
X85552D01*
Y54453D01*
X85348D01*
Y54352D01*
X85247D01*
Y54148D01*
X85348D01*
X81477Y54367D02*
X81579D01*
X81681Y54469D01*
X81782Y54367D01*
X81884D01*
Y54469D01*
X81782Y54571D01*
X81884Y54672D01*
Y54774D01*
X81782D01*
X81681Y54672D01*
X81579Y54774D01*
X81477D01*
Y54672D01*
X81579Y54571D01*
X81477Y54469D01*
Y54367D01*
X71712Y65294D02*
X71814D01*
X71915Y65396D01*
X72017Y65294D01*
X72119D01*
Y65396D01*
X72017Y65497D01*
X72119Y65599D01*
Y65701D01*
X72017D01*
X71915Y65599D01*
X71814Y65701D01*
X71712D01*
Y65599D01*
X71814Y65497D01*
X71712Y65396D01*
Y65294D01*
X36148Y52398D02*
Y52297D01*
X36352D01*
Y52398D01*
X36453D01*
Y52602D01*
X36352D01*
Y52703D01*
X36148D01*
Y52602D01*
X36047D01*
Y52398D01*
X36148D01*
X25797Y54297D02*
X25898D01*
X26000Y54398D01*
X26102Y54297D01*
X26203D01*
Y54398D01*
X26102Y54500D01*
X26203Y54602D01*
Y54703D01*
X26102D01*
X26000Y54602D01*
X25898Y54703D01*
X25797D01*
Y54602D01*
X25898Y54500D01*
X25797Y54398D01*
Y54297D01*
X52547Y69750D02*
X52750Y69953D01*
X52953Y69750D01*
X52750Y69547D01*
X52547Y69750D01*
X128547Y60797D02*
X128648D01*
X128750Y60898D01*
X128852Y60797D01*
X128953D01*
Y60898D01*
X128852Y61000D01*
X128953Y61102D01*
Y61203D01*
X128852D01*
X128750Y61102D01*
X128648Y61203D01*
X128547D01*
Y61102D01*
X128648Y61000D01*
X128547Y60898D01*
Y60797D01*
X122797Y56547D02*
X122898D01*
X123000Y56648D01*
X123102Y56547D01*
X123203D01*
Y56648D01*
X123102Y56750D01*
X123203Y56852D01*
Y56953D01*
X123102D01*
X123000Y56852D01*
X122898Y56953D01*
X122797D01*
Y56852D01*
X122898Y56750D01*
X122797Y56648D01*
Y56547D01*
X82547Y61547D02*
X82648D01*
X82750Y61648D01*
X82852Y61547D01*
X82953D01*
Y61648D01*
X82852Y61750D01*
X82953Y61852D01*
Y61953D01*
X82852D01*
X82750Y61852D01*
X82648Y61953D01*
X82547D01*
Y61852D01*
X82648Y61750D01*
X82547Y61648D01*
Y61547D01*
X76047Y56297D02*
X76148D01*
X76250Y56398D01*
X76352Y56297D01*
X76453D01*
Y56398D01*
X76352Y56500D01*
X76453Y56602D01*
Y56703D01*
X76352D01*
X76250Y56602D01*
X76148Y56703D01*
X76047D01*
Y56602D01*
X76148Y56500D01*
X76047Y56398D01*
Y56297D01*
X31473Y53145D02*
X31575D01*
X31676Y53246D01*
X31778Y53145D01*
X31879D01*
Y53246D01*
X31778Y53348D01*
X31879Y53449D01*
Y53551D01*
X31778D01*
X31676Y53449D01*
X31575Y53551D01*
X31473D01*
Y53449D01*
X31575Y53348D01*
X31473Y53246D01*
Y53145D01*
X31047Y60297D02*
X31148D01*
X31250Y60398D01*
X31352Y60297D01*
X31453D01*
Y60398D01*
X31352Y60500D01*
X31453Y60602D01*
Y60703D01*
X31352D01*
X31250Y60602D01*
X31148Y60703D01*
X31047D01*
Y60602D01*
X31148Y60500D01*
X31047Y60398D01*
Y60297D01*
X25261Y67136D02*
X25363D01*
X25464Y67238D01*
X25566Y67136D01*
X25668D01*
Y67238D01*
X25566Y67339D01*
X25668Y67441D01*
Y67543D01*
X25566D01*
X25464Y67441D01*
X25363Y67543D01*
X25261D01*
Y67441D01*
X25363Y67339D01*
X25261Y67238D01*
Y67136D01*
X21852Y64292D02*
X21954D01*
X22055Y64393D01*
X22157Y64292D01*
X22259D01*
Y64393D01*
X22157Y64495D01*
X22259Y64597D01*
Y64698D01*
X22157D01*
X22055Y64597D01*
X21954Y64698D01*
X21852D01*
Y64597D01*
X21954Y64495D01*
X21852Y64393D01*
Y64292D01*
X101547Y62500D02*
X101750Y62703D01*
X101953Y62500D01*
X101750Y62297D01*
X101547Y62500D01*
X52547Y60250D02*
X52750Y60453D01*
X52953Y60250D01*
X52750Y60047D01*
X52547Y60250D01*
X118062Y64581D02*
X118164D01*
X118266Y64682D01*
X118367Y64581D01*
X118469D01*
Y64682D01*
X118367Y64784D01*
X118469Y64885D01*
Y64987D01*
X118367D01*
X118266Y64885D01*
X118164Y64987D01*
X118062D01*
Y64885D01*
X118164Y64784D01*
X118062Y64682D01*
Y64581D01*
X122797Y73000D02*
X123000Y73203D01*
X123203Y73000D01*
X123000Y72797D01*
X122797Y73000D01*
X122047Y67850D02*
X122250Y68053D01*
X122453Y67850D01*
X122250Y67647D01*
X122047Y67850D01*
X75297Y74000D02*
X75500Y74203D01*
X75703Y74000D01*
X75500Y73797D01*
X75297Y74000D01*
X75005Y68311D02*
X75209Y68514D01*
X75412Y68311D01*
X75209Y68108D01*
X75005Y68311D01*
X24897Y73000D02*
X25100Y73203D01*
X25303Y73000D01*
X25100Y72797D01*
X24897Y73000D01*
X119398Y69648D02*
Y69547D01*
X119602D01*
Y69648D01*
X119703D01*
Y69852D01*
X119602D01*
Y69953D01*
X119398D01*
Y69852D01*
X119297D01*
Y69648D01*
X119398D01*
X142148Y75148D02*
Y75047D01*
X142352D01*
Y75148D01*
X142453D01*
Y75352D01*
X142352D01*
Y75453D01*
X142148D01*
Y75352D01*
X142047D01*
Y75148D01*
X142148D01*
X127797Y64750D02*
X128000Y64953D01*
X128203Y64750D01*
X128000Y64547D01*
X127797Y64750D01*
X132047Y75250D02*
X132250Y75453D01*
X132453Y75250D01*
X132250Y75047D01*
X132047Y75250D01*
X72148Y70148D02*
Y70047D01*
X72352D01*
Y70148D01*
X72453D01*
Y70352D01*
X72352D01*
Y70453D01*
X72148D01*
Y70352D01*
X72047D01*
Y70148D01*
X72148D01*
X83047Y74500D02*
X83250Y74703D01*
X83453Y74500D01*
X83250Y74297D01*
X83047Y74500D01*
X81547Y65500D02*
X81750Y65703D01*
X81953Y65500D01*
X81750Y65297D01*
X81547Y65500D01*
X93148Y74398D02*
Y74297D01*
X93352D01*
Y74398D01*
X93453D01*
Y74602D01*
X93352D01*
Y74703D01*
X93148D01*
Y74602D01*
X93047D01*
Y74398D01*
X93148D01*
X22398Y69148D02*
Y69047D01*
X22602D01*
Y69148D01*
X22703D01*
Y69352D01*
X22602D01*
Y69453D01*
X22398D01*
Y69352D01*
X22297D01*
Y69148D01*
X22398D01*
X33547Y74250D02*
X33750Y74453D01*
X33953Y74250D01*
X33750Y74047D01*
X33547Y74250D01*
X31797Y64500D02*
X32000Y64703D01*
X32203Y64500D01*
X32000Y64297D01*
X31797Y64500D01*
X43648Y74148D02*
Y74047D01*
X43852D01*
Y74148D01*
X43953D01*
Y74352D01*
X43852D01*
Y74453D01*
X43648D01*
Y74352D01*
X43547D01*
Y74148D01*
X43648D01*
D60*
X132352Y81250D02*
G03*
X132352Y81250I-102J0D01*
G01*
X134892D02*
G03*
X134892Y81250I-102J0D01*
G01*
X137432D02*
G03*
X137432Y81250I-102J0D01*
G01*
X36312Y81250D02*
G03*
X36312Y81250I-102J0D01*
G01*
X38852D02*
G03*
X38852Y81250I-102J0D01*
G01*
X41392D02*
G03*
X41392Y81250I-102J0D01*
G01*
X86102Y81250D02*
G03*
X86102Y81250I-102J0D01*
G01*
X88642D02*
G03*
X88642Y81250I-102J0D01*
G01*
X91182D02*
G03*
X91182Y81250I-102J0D01*
G01*
M02*
