G04*
G04 #@! TF.GenerationSoftware,Altium Limited,Altium Designer,22.5.1 (42)*
G04*
G04 Layer_Color=255*
%FSLAX43Y43*%
%MOMM*%
G71*
G04*
G04 #@! TF.SameCoordinates,2A2A3854-17DD-444F-B545-0734B4948F52*
G04*
G04*
G04 #@! TF.FilePolarity,Positive*
G04*
G01*
G75*
%ADD37C,1.570*%
%ADD44C,2.000*%
%ADD45C,3.500*%
%ADD46C,6.800*%
%ADD47C,1.400*%
%ADD48R,1.400X1.400*%
%ADD49C,1.950*%
%ADD50R,1.950X1.950*%
D37*
X96000Y63250D02*
D03*
X43750Y65500D02*
D03*
X11000Y57900D02*
D03*
X107250Y57650D02*
D03*
X64750Y71750D02*
D03*
X59750D02*
D03*
X58750Y58000D02*
D03*
X142500Y63750D02*
D03*
D44*
X99750Y36430D02*
D03*
Y33890D02*
D03*
Y31350D02*
D03*
Y28810D02*
D03*
Y26270D02*
D03*
X153000Y36430D02*
D03*
Y33890D02*
D03*
Y31350D02*
D03*
Y28810D02*
D03*
Y26270D02*
D03*
X46500Y36430D02*
D03*
Y33890D02*
D03*
Y31350D02*
D03*
Y28810D02*
D03*
Y26270D02*
D03*
D45*
X90800Y39250D02*
D03*
Y23450D02*
D03*
X65000Y39250D02*
D03*
Y23450D02*
D03*
X144050Y39250D02*
D03*
Y23450D02*
D03*
X118250Y39250D02*
D03*
Y23450D02*
D03*
X37550Y39250D02*
D03*
Y23450D02*
D03*
X11750Y39250D02*
D03*
Y23450D02*
D03*
D46*
X156000Y80000D02*
D03*
Y5250D02*
D03*
X5000Y80000D02*
D03*
Y5250D02*
D03*
D47*
X132250Y81250D02*
D03*
X134790D02*
D03*
X36210Y81250D02*
D03*
X38750D02*
D03*
X86000Y81250D02*
D03*
X88540D02*
D03*
D48*
X137330D02*
D03*
X41290Y81250D02*
D03*
X91080Y81250D02*
D03*
D49*
X119420Y79500D02*
D03*
X23420Y79750D02*
D03*
X59670Y79750D02*
D03*
X73000D02*
D03*
D50*
X124500Y79500D02*
D03*
X28500Y79750D02*
D03*
X64750Y79750D02*
D03*
X78080D02*
D03*
M02*
