G04*
G04 #@! TF.GenerationSoftware,Altium Limited,Altium Designer,22.5.1 (42)*
G04*
G04 Layer_Color=16711935*
%FSLAX43Y43*%
%MOMM*%
G71*
G04*
G04 #@! TF.SameCoordinates,2A2A3854-17DD-444F-B545-0734B4948F52*
G04*
G04*
G04 #@! TF.FilePolarity,Negative*
G04*
G01*
G75*
%ADD30C,2.203*%
%ADD31C,3.703*%
%ADD32C,7.003*%
%ADD33C,1.603*%
%ADD34R,1.603X1.603*%
%ADD35C,2.153*%
%ADD36R,2.153X2.153*%
%ADD37C,1.570*%
%ADD38C,1.203*%
%ADD39C,1.103*%
%ADD40C,1.473*%
D30*
X99750Y36430D02*
D03*
Y33890D02*
D03*
Y31350D02*
D03*
Y28810D02*
D03*
Y26270D02*
D03*
X153000Y36430D02*
D03*
Y33890D02*
D03*
Y31350D02*
D03*
Y28810D02*
D03*
Y26270D02*
D03*
X46500Y36430D02*
D03*
Y33890D02*
D03*
Y31350D02*
D03*
Y28810D02*
D03*
Y26270D02*
D03*
D31*
X90800Y39250D02*
D03*
Y23450D02*
D03*
X65000Y39250D02*
D03*
Y23450D02*
D03*
X144050Y39250D02*
D03*
Y23450D02*
D03*
X118250Y39250D02*
D03*
Y23450D02*
D03*
X37550Y39250D02*
D03*
Y23450D02*
D03*
X11750Y39250D02*
D03*
Y23450D02*
D03*
D32*
X156000Y80000D02*
D03*
Y5250D02*
D03*
X5000Y80000D02*
D03*
Y5250D02*
D03*
D33*
X132250Y81250D02*
D03*
X134790D02*
D03*
X36210Y81250D02*
D03*
X38750D02*
D03*
X86000Y81250D02*
D03*
X88540D02*
D03*
D34*
X137330D02*
D03*
X41290Y81250D02*
D03*
X91080Y81250D02*
D03*
D35*
X119420Y79500D02*
D03*
X23420Y79750D02*
D03*
X59670Y79750D02*
D03*
X73000D02*
D03*
D36*
X124500Y79500D02*
D03*
X28500Y79750D02*
D03*
X64750Y79750D02*
D03*
X78080D02*
D03*
D37*
X96000Y63250D02*
D03*
X43750Y65500D02*
D03*
X11000Y57900D02*
D03*
X107250Y57650D02*
D03*
X64750Y71750D02*
D03*
X59750D02*
D03*
X58750Y58000D02*
D03*
X142500Y63750D02*
D03*
D38*
X158750Y23750D02*
D03*
X152288Y23714D02*
D03*
X105000Y23750D02*
D03*
X98450Y23700D02*
D03*
X52250Y23750D02*
D03*
X45200Y23700D02*
D03*
X146500Y64500D02*
D03*
X157847Y58250D02*
D03*
X157950Y69750D02*
D03*
X145000Y82250D02*
D03*
X133920Y68500D02*
D03*
X105750Y73000D02*
D03*
X112000Y80250D02*
D03*
X96000Y79250D02*
D03*
X92250Y64500D02*
D03*
X56250Y53500D02*
D03*
X49000Y64000D02*
D03*
X52750Y69750D02*
D03*
X101750Y62500D02*
D03*
X52750Y60250D02*
D03*
X123000Y73000D02*
D03*
X122250Y67850D02*
D03*
X75500Y74000D02*
D03*
X75209Y68311D02*
D03*
X25100Y73000D02*
D03*
X128000Y64750D02*
D03*
X132250Y75250D02*
D03*
X83250Y74500D02*
D03*
X81750Y65500D02*
D03*
X33750Y74250D02*
D03*
X32000Y64500D02*
D03*
D39*
X94750Y68750D02*
D03*
X47700Y55450D02*
D03*
X45750Y59000D02*
D03*
X50000Y80500D02*
D03*
X19250Y82000D02*
D03*
X12500Y73750D02*
D03*
X9000Y70250D02*
D03*
X8500Y53750D02*
D03*
X21500Y48750D02*
D03*
X152802Y44798D02*
D03*
X127491Y48350D02*
D03*
X99366Y42603D02*
D03*
X73646Y47834D02*
D03*
X47250Y43500D02*
D03*
X130250Y56000D02*
D03*
X81681Y54571D02*
D03*
X71915Y65497D02*
D03*
X26000Y54500D02*
D03*
X128750Y61000D02*
D03*
X123000Y56750D02*
D03*
X82750Y61750D02*
D03*
X76250Y56500D02*
D03*
X31676Y53348D02*
D03*
X31250Y60500D02*
D03*
X25464Y67339D02*
D03*
X22055Y64495D02*
D03*
X118266Y64784D02*
D03*
D40*
X135250Y54500D02*
D03*
X85450Y54250D02*
D03*
X36250Y52500D02*
D03*
X119500Y69750D02*
D03*
X142250Y75250D02*
D03*
X72250Y70250D02*
D03*
X93250Y74500D02*
D03*
X22500Y69250D02*
D03*
X43750Y74250D02*
D03*
M02*
