G04*
G04 #@! TF.GenerationSoftware,Altium Limited,Altium Designer,22.5.1 (42)*
G04*
G04 Layer_Color=32768*
%FSLAX43Y43*%
%MOMM*%
G71*
G04*
G04 #@! TF.SameCoordinates,2A2A3854-17DD-444F-B545-0734B4948F52*
G04*
G04*
G04 #@! TF.FilePolarity,Positive*
G04*
G01*
G75*
%ADD13C,0.200*%
%ADD14C,0.152*%
%ADD55C,0.100*%
%ADD57C,0.050*%
G36*
X29003Y65957D02*
X30305D01*
Y63043D01*
X29003D01*
Y62747D01*
X25497D01*
Y63043D01*
X24195D01*
Y65957D01*
X25497D01*
Y66253D01*
X29003D01*
Y65957D01*
D02*
G37*
G36*
X78753Y66932D02*
X80055D01*
Y64018D01*
X78753D01*
Y63722D01*
X75247D01*
Y64018D01*
X73945D01*
Y66932D01*
X75247D01*
Y67228D01*
X78753D01*
Y66932D01*
D02*
G37*
G36*
X125253Y66207D02*
X126555D01*
Y63293D01*
X125253D01*
Y62997D01*
X121747D01*
Y63293D01*
X120445D01*
Y66207D01*
X121747D01*
Y66503D01*
X125253D01*
Y66207D01*
D02*
G37*
D13*
X97445Y63250D02*
G03*
X94555Y63250I-1445J0D01*
G01*
D02*
G03*
X97445Y63250I1445J0D01*
G01*
X45195Y65500D02*
G03*
X42305Y65500I-1445J0D01*
G01*
D02*
G03*
X45195Y65500I1445J0D01*
G01*
X108695Y57650D02*
G03*
X105805Y57650I-1445J0D01*
G01*
D02*
G03*
X108695Y57650I1445J0D01*
G01*
X66195Y71750D02*
G03*
X63305Y71750I-1445J0D01*
G01*
D02*
G03*
X66195Y71750I1445J0D01*
G01*
X61195D02*
G03*
X58305Y71750I-1445J0D01*
G01*
D02*
G03*
X61195Y71750I1445J0D01*
G01*
X60195Y58000D02*
G03*
X57305Y58000I-1445J0D01*
G01*
D02*
G03*
X60195Y58000I1445J0D01*
G01*
X9555Y57900D02*
G03*
X12445Y57900I1445J0D01*
G01*
D02*
G03*
X9555Y57900I-1445J0D01*
G01*
X141055Y63750D02*
G03*
X143945Y63750I1445J0D01*
G01*
D02*
G03*
X141055Y63750I-1445J0D01*
G01*
X133975Y72600D02*
Y75800D01*
X135525D01*
Y72600D02*
Y75800D01*
X133975Y72600D02*
X135525D01*
X137200Y76025D02*
X140400D01*
Y74475D02*
Y76025D01*
X137200Y74475D02*
X140400D01*
X137200D02*
Y76025D01*
X81900Y58475D02*
Y60025D01*
X78700D02*
X81900D01*
X78700Y58475D02*
Y60025D01*
Y58475D02*
X81900D01*
X90420Y61150D02*
X91580D01*
X90420Y58650D02*
Y61150D01*
Y58650D02*
X91580D01*
Y61150D01*
X88920Y64500D02*
X90080D01*
Y67000D01*
X88920D02*
X90080D01*
X88920Y64500D02*
Y67000D01*
X35225Y71600D02*
X36775D01*
Y74800D01*
X35225D02*
X36775D01*
X35225Y71600D02*
Y74800D01*
X24275Y68623D02*
X25925D01*
Y71329D01*
X24275D02*
X25925D01*
X24275Y68623D02*
Y71329D01*
X83450Y63850D02*
X85050D01*
Y67050D01*
X83450D02*
X85050D01*
X83450Y63850D02*
Y67050D01*
X27472Y67998D02*
X30028D01*
Y72314D01*
X27472D02*
X30028D01*
X27472Y67998D02*
Y72314D01*
X38200Y75025D02*
X41400D01*
Y73475D02*
Y75025D01*
X38200Y73475D02*
X41400D01*
X38200D02*
Y75025D01*
X39772Y52721D02*
X41728D01*
Y56127D01*
X39772D02*
X41728D01*
X39772Y52721D02*
Y56127D01*
X130950Y63150D02*
X132550D01*
Y66350D01*
X130950D02*
X132550D01*
X130950Y63150D02*
Y66350D01*
X135045Y63750D02*
X136205D01*
Y66250D01*
X135045D02*
X136205D01*
X135045Y63750D02*
Y66250D01*
X109420Y63750D02*
X110580D01*
Y66250D01*
X109420D02*
X110580D01*
X109420Y63750D02*
Y66250D01*
X113950Y63150D02*
X115550D01*
Y66350D01*
X113950D02*
X115550D01*
X113950Y63150D02*
Y66350D01*
X121425Y69123D02*
X123075D01*
Y71829D01*
X121425D02*
X123075D01*
X121425Y69123D02*
Y71829D01*
X124372Y68498D02*
X126928D01*
Y72814D01*
X124372D02*
X126928D01*
X124372Y68498D02*
Y72814D01*
X140272Y53623D02*
Y57029D01*
X142228D01*
Y53623D02*
Y57029D01*
X140272Y53623D02*
X142228D01*
X137175Y53873D02*
Y56579D01*
X138825D01*
Y53873D02*
Y56579D01*
X137175Y53873D02*
X138825D01*
X136420Y61000D02*
X137580D01*
X136420Y58500D02*
Y61000D01*
Y58500D02*
X137580D01*
Y61000D01*
X128300Y58225D02*
Y59775D01*
X125100D02*
X128300D01*
X125100Y58225D02*
Y59775D01*
Y58225D02*
X128300D01*
X115225Y57100D02*
X116775D01*
Y60300D01*
X115225D02*
X116775D01*
X115225Y57100D02*
Y60300D01*
X111225Y57100D02*
Y60300D01*
X112775D01*
Y57100D02*
Y60300D01*
X111225Y57100D02*
X112775D01*
X112627Y53425D02*
Y55075D01*
X109921D02*
X112627D01*
X109921Y53425D02*
Y55075D01*
Y53425D02*
X112627D01*
X63023Y57450D02*
X64573D01*
Y60650D01*
X63023D02*
X64573D01*
X63023Y57450D02*
Y60650D01*
X68200Y63900D02*
X69800D01*
Y67100D01*
X68200D02*
X69800D01*
X68200Y63900D02*
Y67100D01*
X63670Y64500D02*
X64830D01*
Y67000D01*
X63670D02*
X64830D01*
X63670Y64500D02*
Y67000D01*
X74025Y69623D02*
X75675D01*
Y72329D01*
X74025D02*
X75675D01*
X74025Y69623D02*
Y72329D01*
X77222Y68998D02*
X79778D01*
Y73314D01*
X77222D02*
X79778D01*
X77222Y68998D02*
Y73314D01*
X87272Y53373D02*
X89228D01*
Y56779D01*
X87272D02*
X89228D01*
X87272Y53373D02*
Y56779D01*
X91425Y53623D02*
X93075D01*
Y56329D01*
X91425D02*
X93075D01*
X91425Y53623D02*
Y56329D01*
X68225Y57450D02*
X69775D01*
Y60650D01*
X68225D02*
X69775D01*
X68225Y57450D02*
Y60650D01*
X87950Y75275D02*
X91150D01*
Y73725D02*
Y75275D01*
X87950Y73725D02*
X91150D01*
X87950D02*
Y75275D01*
X84975Y71850D02*
X86525D01*
Y75050D01*
X84975D02*
X86525D01*
X84975Y71850D02*
Y75050D01*
X64426Y53925D02*
Y55575D01*
X61720D02*
X64426D01*
X61720Y53925D02*
Y55575D01*
Y53925D02*
X64426D01*
X18725Y57350D02*
X20275D01*
Y60550D01*
X18725D02*
X20275D01*
X18725Y57350D02*
Y60550D01*
X10170Y63500D02*
X11330D01*
Y66000D01*
X10170D02*
X11330D01*
X10170Y63500D02*
Y66000D01*
X16627Y54425D02*
Y56075D01*
X13921D02*
X16627D01*
X13921Y54425D02*
Y56075D01*
Y54425D02*
X16627D01*
X15225Y57350D02*
X16775D01*
Y60550D01*
X15225D02*
X16775D01*
X15225Y57350D02*
Y60550D01*
X32026Y57466D02*
Y59016D01*
X28826D02*
X32026D01*
X28826Y57466D02*
Y59016D01*
Y57466D02*
X32026D01*
X17200Y62900D02*
X18800D01*
Y66100D01*
X17200D02*
X18800D01*
X17200Y62900D02*
Y66100D01*
X33700Y62875D02*
Y66075D01*
X35300D01*
Y62875D02*
Y66075D01*
X33700Y62875D02*
X35300D01*
X41080Y57750D02*
Y60250D01*
X39920Y57750D02*
X41080D01*
X39920D02*
Y60250D01*
X41080D01*
X44425Y53171D02*
Y55877D01*
X46075D01*
Y53171D02*
Y55877D01*
X44425Y53171D02*
X46075D01*
X38420Y63475D02*
Y65975D01*
X39580D01*
Y63475D02*
Y65975D01*
X38420Y63475D02*
X39580D01*
D14*
X30305Y63043D02*
Y65957D01*
X29003Y63043D02*
X30305D01*
X29003Y62747D02*
Y63043D01*
X25497Y62747D02*
X29003D01*
X25497D02*
Y63043D01*
X24195D02*
X25497D01*
X24195D02*
Y65957D01*
X25497D01*
Y66253D01*
X29003D01*
Y65957D02*
Y66253D01*
Y65957D02*
X30305D01*
X125253Y66207D02*
X126555D01*
X125253D02*
Y66503D01*
X121747D02*
X125253D01*
X121747Y66207D02*
Y66503D01*
X120445Y66207D02*
X121747D01*
X120445Y63293D02*
Y66207D01*
Y63293D02*
X121747D01*
Y62997D02*
Y63293D01*
Y62997D02*
X125253D01*
Y63293D01*
X126555D01*
Y66207D01*
X78753Y66932D02*
X80055D01*
X78753D02*
Y67228D01*
X75247D02*
X78753D01*
X75247Y66932D02*
Y67228D01*
X73945Y66932D02*
X75247D01*
X73945Y64018D02*
Y66932D01*
Y64018D02*
X75247D01*
Y63722D02*
Y64018D01*
Y63722D02*
X78753D01*
Y64018D01*
X80055D01*
Y66932D01*
D55*
X132500Y59925D02*
X133500D01*
X133000Y59425D02*
Y60425D01*
X134790Y80750D02*
Y81750D01*
X134290Y81250D02*
X135290D01*
X85500Y59575D02*
Y60575D01*
X85000Y60075D02*
X86000D01*
X38750Y80750D02*
Y81750D01*
X38250Y81250D02*
X39250D01*
X119925Y59750D02*
X120925D01*
X120425Y59250D02*
Y60250D01*
X73425Y60100D02*
X74425D01*
X73925Y59600D02*
Y60600D01*
X88540Y80750D02*
Y81750D01*
X88040Y81250D02*
X89040D01*
X23675Y60000D02*
X24675D01*
X24175Y59500D02*
Y60500D01*
X36500Y58675D02*
Y59675D01*
X36000Y59175D02*
X37000D01*
D57*
X132000Y58225D02*
Y61625D01*
X134000Y58225D02*
Y61625D01*
X132000Y58225D02*
X134000D01*
X132000Y61625D02*
X134000D01*
X139655Y78730D02*
Y83760D01*
X129925D02*
X139655D01*
X129925Y78730D02*
Y83760D01*
Y78730D02*
X139655D01*
X121960Y79000D02*
Y80000D01*
X121460Y79500D02*
X122460D01*
X116080Y75250D02*
X127840D01*
X116080D02*
Y83750D01*
X127840D01*
Y75250D02*
Y83750D01*
X84500Y61775D02*
X86500D01*
X84500Y58375D02*
X86500D01*
Y61775D01*
X84500Y58375D02*
Y61775D01*
X43615Y78730D02*
Y83760D01*
X33885D02*
X43615D01*
X33885Y78730D02*
Y83760D01*
Y78730D02*
X43615D01*
X25960Y79250D02*
Y80250D01*
X25460Y79750D02*
X26460D01*
X20080Y75500D02*
X31840D01*
X20080D02*
Y84000D01*
X31840D01*
Y75500D02*
Y84000D01*
X122125Y58750D02*
Y60750D01*
X118725Y58750D02*
Y60750D01*
Y58750D02*
X122125D01*
X118725Y60750D02*
X122125D01*
X62210Y79250D02*
Y80250D01*
X61710Y79750D02*
X62710D01*
X56330Y75500D02*
X68090D01*
X56330D02*
Y84000D01*
X68090D01*
Y75500D02*
Y84000D01*
X75625Y59100D02*
Y61100D01*
X72225Y59100D02*
Y61100D01*
Y59100D02*
X75625D01*
X72225Y61100D02*
X75625D01*
X75540Y79250D02*
Y80250D01*
X75040Y79750D02*
X76040D01*
X69660Y75500D02*
X81420D01*
X69660D02*
Y84000D01*
X81420D01*
Y75500D02*
Y84000D01*
X93405Y78730D02*
Y83760D01*
X83675D02*
X93405D01*
X83675Y78730D02*
Y83760D01*
Y78730D02*
X93405D01*
X25875Y59000D02*
Y61000D01*
X22475Y59000D02*
Y61000D01*
Y59000D02*
X25875D01*
X22475Y61000D02*
X25875D01*
X35500Y60875D02*
X37500D01*
X35500Y57475D02*
X37500D01*
Y60875D01*
X35500Y57475D02*
Y60875D01*
M02*
