G04*
G04 #@! TF.GenerationSoftware,Altium Limited,Altium Designer,22.5.1 (42)*
G04*
G04 Layer_Color=8421504*
%FSLAX43Y43*%
%MOMM*%
G71*
G04*
G04 #@! TF.SameCoordinates,2A2A3854-17DD-444F-B545-0734B4948F52*
G04*
G04*
G04 #@! TF.FilePolarity,Positive*
G04*
G01*
G75*
%ADD16R,1.450X1.050*%
%ADD17R,1.300X0.900*%
%ADD18R,0.900X1.200*%
%ADD19R,0.900X1.300*%
%ADD20R,0.750X0.800*%
%ADD21R,1.356X1.055*%
%ADD22R,1.300X1.000*%
%ADD23R,1.556X1.505*%
%ADD24R,1.456X1.255*%
%ADD25R,1.303X0.456*%
%ADD26R,1.050X1.450*%
%ADD27R,1.055X1.356*%
D16*
X133000Y59000D02*
D03*
Y60850D02*
D03*
X85500Y61000D02*
D03*
Y59150D02*
D03*
X36500Y60100D02*
D03*
Y58250D02*
D03*
D17*
X134750Y73150D02*
D03*
Y75250D02*
D03*
X36000Y74250D02*
D03*
Y72150D02*
D03*
X116000Y59750D02*
D03*
Y57650D02*
D03*
X112000D02*
D03*
Y59750D02*
D03*
X63798Y60100D02*
D03*
Y58000D02*
D03*
X69000Y60100D02*
D03*
Y58000D02*
D03*
X85750Y74500D02*
D03*
Y72400D02*
D03*
X19500Y60000D02*
D03*
Y57900D02*
D03*
X16000Y60000D02*
D03*
Y57900D02*
D03*
D18*
X137750Y75250D02*
D03*
X139850D02*
D03*
X38750Y74250D02*
D03*
X40850D02*
D03*
X88500Y74500D02*
D03*
X90600D02*
D03*
D19*
X79250Y59250D02*
D03*
X81350D02*
D03*
X125650Y59000D02*
D03*
X127750D02*
D03*
X29376Y58241D02*
D03*
X31476D02*
D03*
D20*
X91000Y59150D02*
D03*
Y60650D02*
D03*
X89500Y66500D02*
D03*
Y65000D02*
D03*
X135625Y65750D02*
D03*
Y64250D02*
D03*
X110000Y65750D02*
D03*
Y64250D02*
D03*
X137000Y59000D02*
D03*
Y60500D02*
D03*
X64250Y66500D02*
D03*
Y65000D02*
D03*
X10750Y65500D02*
D03*
Y64000D02*
D03*
X40500Y59750D02*
D03*
Y58250D02*
D03*
X39000Y63975D02*
D03*
Y65475D02*
D03*
D21*
X25100Y70702D02*
D03*
Y69250D02*
D03*
X122250Y71202D02*
D03*
Y69750D02*
D03*
X138000Y54500D02*
D03*
Y55952D02*
D03*
X74850Y71702D02*
D03*
Y70250D02*
D03*
X92250Y55702D02*
D03*
Y54250D02*
D03*
X45250Y53798D02*
D03*
Y55250D02*
D03*
D22*
X84250Y66450D02*
D03*
Y64450D02*
D03*
X131750Y65750D02*
D03*
Y63750D02*
D03*
X114750Y65750D02*
D03*
Y63750D02*
D03*
X69000Y66500D02*
D03*
Y64500D02*
D03*
X18000Y65500D02*
D03*
Y63500D02*
D03*
X34500Y63475D02*
D03*
Y65475D02*
D03*
D23*
X28750Y71062D02*
D03*
Y69250D02*
D03*
X125650Y71562D02*
D03*
Y69750D02*
D03*
X78500Y72062D02*
D03*
Y70250D02*
D03*
D24*
X40750Y55250D02*
D03*
Y53598D02*
D03*
X141250Y54500D02*
D03*
Y56152D02*
D03*
X88250Y55902D02*
D03*
Y54250D02*
D03*
D25*
X29400Y63525D02*
D03*
Y64175D02*
D03*
Y64825D02*
D03*
Y65475D02*
D03*
X25100D02*
D03*
Y64825D02*
D03*
Y64175D02*
D03*
Y63525D02*
D03*
X121350Y63775D02*
D03*
Y64425D02*
D03*
Y65075D02*
D03*
Y65725D02*
D03*
X125650D02*
D03*
Y65075D02*
D03*
Y64425D02*
D03*
Y63775D02*
D03*
X74850Y64500D02*
D03*
Y65150D02*
D03*
Y65800D02*
D03*
Y66450D02*
D03*
X79150D02*
D03*
Y65800D02*
D03*
Y65150D02*
D03*
Y64500D02*
D03*
D26*
X121350Y59750D02*
D03*
X119500D02*
D03*
X74850Y60100D02*
D03*
X73000D02*
D03*
X25100Y60000D02*
D03*
X23250D02*
D03*
D27*
X110548Y54250D02*
D03*
X112000D02*
D03*
X62347Y54750D02*
D03*
X63798D02*
D03*
X14548Y55250D02*
D03*
X16000D02*
D03*
M02*
