G04*
G04 #@! TF.GenerationSoftware,Altium Limited,Altium Designer,22.5.1 (42)*
G04*
G04 Layer_Physical_Order=1*
G04 Layer_Color=255*
%FSLAX43Y43*%
%MOMM*%
G71*
G04*
G04 #@! TF.SameCoordinates,2A2A3854-17DD-444F-B545-0734B4948F52*
G04*
G04*
G04 #@! TF.FilePolarity,Positive*
G04*
G01*
G75*
%ADD16R,1.450X1.050*%
%ADD17R,1.300X0.900*%
%ADD18R,0.900X1.200*%
%ADD19R,0.900X1.300*%
%ADD20R,0.750X0.800*%
%ADD21R,1.356X1.055*%
%ADD22R,1.300X1.000*%
%ADD23R,1.556X1.505*%
%ADD24R,1.456X1.255*%
%ADD25R,1.303X0.456*%
%ADD26R,1.050X1.450*%
%ADD27R,1.055X1.356*%
%ADD37C,1.570*%
%ADD41C,0.640*%
%ADD42C,0.510*%
%ADD43C,0.380*%
%ADD44C,2.000*%
%ADD45C,3.500*%
%ADD46C,6.800*%
%ADD47C,1.400*%
%ADD48R,1.400X1.400*%
%ADD49C,1.950*%
%ADD50R,1.950X1.950*%
%ADD51C,1.000*%
%ADD52C,0.900*%
%ADD53C,1.270*%
G36*
X148500Y74250D02*
X150750Y72000D01*
X160690D01*
Y22500D01*
X150250D01*
Y46250D01*
X125000D01*
Y51250D01*
X107500D01*
Y22500D01*
X97000D01*
Y46250D01*
X71750D01*
Y51250D01*
X71747Y51253D01*
X54186D01*
Y22612D01*
X54071Y22497D01*
X54069Y22500D01*
X43750D01*
Y46250D01*
X18500D01*
Y50750D01*
Y51250D01*
X6250D01*
Y72250D01*
X18500Y84500D01*
X148500D01*
X148500Y74250D01*
D02*
G37*
%LPC*%
G36*
X145200Y83128D02*
Y82450D01*
X145878D01*
X145839Y82597D01*
X145720Y82803D01*
X145553Y82970D01*
X145347Y83089D01*
X145200Y83128D01*
D02*
G37*
G36*
X144800D02*
X144653Y83089D01*
X144447Y82970D01*
X144280Y82803D01*
X144161Y82597D01*
X144122Y82450D01*
X144800D01*
Y83128D01*
D02*
G37*
G36*
X19450Y82826D02*
Y82200D01*
X20076D01*
X20042Y82328D01*
X19930Y82522D01*
X19772Y82680D01*
X19578Y82792D01*
X19450Y82826D01*
D02*
G37*
G36*
X19050D02*
X18922Y82792D01*
X18728Y82680D01*
X18570Y82522D01*
X18458Y82328D01*
X18424Y82200D01*
X19050D01*
Y82826D01*
D02*
G37*
G36*
X92180Y82350D02*
X91280D01*
Y81450D01*
X92180D01*
Y82350D01*
D02*
G37*
G36*
X138430D02*
X137530D01*
Y81450D01*
X138430D01*
Y82350D01*
D02*
G37*
G36*
X137130D02*
X136230D01*
Y81450D01*
X137130D01*
Y82350D01*
D02*
G37*
G36*
X90880D02*
X89980D01*
Y81450D01*
X90880D01*
Y82350D01*
D02*
G37*
G36*
X42390Y82350D02*
X41490D01*
Y81450D01*
X42390D01*
Y82350D01*
D02*
G37*
G36*
X41090D02*
X40190D01*
Y81450D01*
X41090D01*
Y82350D01*
D02*
G37*
G36*
X144800Y82050D02*
X144122D01*
X144161Y81903D01*
X144280Y81697D01*
X144447Y81530D01*
X144653Y81411D01*
X144800Y81372D01*
Y82050D01*
D02*
G37*
G36*
X145878D02*
X145200D01*
Y81372D01*
X145347Y81411D01*
X145553Y81530D01*
X145720Y81697D01*
X145839Y81903D01*
X145878Y82050D01*
D02*
G37*
G36*
X20076Y81800D02*
X19450D01*
Y81174D01*
X19578Y81208D01*
X19772Y81320D01*
X19930Y81478D01*
X20042Y81672D01*
X20076Y81800D01*
D02*
G37*
G36*
X19050D02*
X18424D01*
X18458Y81672D01*
X18570Y81478D01*
X18728Y81320D01*
X18922Y81208D01*
X19050Y81174D01*
Y81800D01*
D02*
G37*
G36*
X50200Y81326D02*
Y80700D01*
X50826D01*
X50792Y80828D01*
X50680Y81022D01*
X50522Y81180D01*
X50328Y81292D01*
X50200Y81326D01*
D02*
G37*
G36*
X49800D02*
X49672Y81292D01*
X49478Y81180D01*
X49320Y81022D01*
X49208Y80828D01*
X49174Y80700D01*
X49800D01*
Y81326D01*
D02*
G37*
G36*
X112200Y81128D02*
Y80450D01*
X112878D01*
X112839Y80597D01*
X112720Y80803D01*
X112553Y80970D01*
X112347Y81089D01*
X112200Y81128D01*
D02*
G37*
G36*
X111800D02*
X111653Y81089D01*
X111447Y80970D01*
X111280Y80803D01*
X111161Y80597D01*
X111122Y80450D01*
X111800D01*
Y81128D01*
D02*
G37*
G36*
X132376Y82204D02*
X132124D01*
X131882Y82139D01*
X131664Y82013D01*
X131487Y81836D01*
X131361Y81618D01*
X131296Y81376D01*
Y81124D01*
X131361Y80882D01*
X131487Y80664D01*
X131664Y80487D01*
X131882Y80361D01*
X132124Y80296D01*
X132376D01*
X132618Y80361D01*
X132836Y80487D01*
X133013Y80664D01*
X133139Y80882D01*
X133204Y81124D01*
Y81376D01*
X133139Y81618D01*
X133013Y81836D01*
X132836Y82013D01*
X132618Y82139D01*
X132376Y82204D01*
D02*
G37*
G36*
X86126D02*
X85874D01*
X85632Y82139D01*
X85414Y82013D01*
X85237Y81836D01*
X85111Y81618D01*
X85046Y81376D01*
Y81124D01*
X85111Y80882D01*
X85237Y80664D01*
X85414Y80487D01*
X85632Y80361D01*
X85874Y80296D01*
X86126D01*
X86368Y80361D01*
X86586Y80487D01*
X86763Y80664D01*
X86889Y80882D01*
X86954Y81124D01*
Y81376D01*
X86889Y81618D01*
X86763Y81836D01*
X86586Y82013D01*
X86368Y82139D01*
X86126Y82204D01*
D02*
G37*
G36*
X36336Y82204D02*
X36084D01*
X35842Y82139D01*
X35624Y82013D01*
X35447Y81836D01*
X35321Y81618D01*
X35256Y81376D01*
Y81124D01*
X35321Y80882D01*
X35447Y80664D01*
X35624Y80487D01*
X35842Y80361D01*
X36084Y80296D01*
X36336D01*
X36578Y80361D01*
X36796Y80487D01*
X36973Y80664D01*
X37099Y80882D01*
X37164Y81124D01*
Y81376D01*
X37099Y81618D01*
X36973Y81836D01*
X36796Y82013D01*
X36578Y82139D01*
X36336Y82204D01*
D02*
G37*
G36*
X138430Y81050D02*
X137530D01*
Y80150D01*
X138430D01*
Y81050D01*
D02*
G37*
G36*
X137130D02*
X136230D01*
Y80150D01*
X137130D01*
Y81050D01*
D02*
G37*
G36*
X92180D02*
X91280D01*
Y80150D01*
X92180D01*
Y81050D01*
D02*
G37*
G36*
X90880D02*
X89980D01*
Y80150D01*
X90880D01*
Y81050D01*
D02*
G37*
G36*
X42390Y81050D02*
X41490D01*
Y80150D01*
X42390D01*
Y81050D01*
D02*
G37*
G36*
X41090D02*
X40190D01*
Y80150D01*
X41090D01*
Y81050D01*
D02*
G37*
G36*
X59870Y81120D02*
Y79950D01*
X61040D01*
X60951Y80281D01*
X60770Y80594D01*
X60514Y80850D01*
X60201Y81031D01*
X59870Y81120D01*
D02*
G37*
G36*
X59470D02*
X59139Y81031D01*
X58826Y80850D01*
X58570Y80594D01*
X58389Y80281D01*
X58300Y79950D01*
X59470D01*
Y81120D01*
D02*
G37*
G36*
X50826Y80300D02*
X50200D01*
Y79674D01*
X50328Y79708D01*
X50522Y79820D01*
X50680Y79978D01*
X50792Y80172D01*
X50826Y80300D01*
D02*
G37*
G36*
X49800D02*
X49174D01*
X49208Y80172D01*
X49320Y79978D01*
X49478Y79820D01*
X49672Y79708D01*
X49800Y79674D01*
Y80300D01*
D02*
G37*
G36*
X96200Y80128D02*
Y79450D01*
X96878D01*
X96839Y79597D01*
X96720Y79803D01*
X96553Y79970D01*
X96347Y80089D01*
X96200Y80128D01*
D02*
G37*
G36*
X95800D02*
X95653Y80089D01*
X95447Y79970D01*
X95280Y79803D01*
X95161Y79597D01*
X95122Y79450D01*
X95800D01*
Y80128D01*
D02*
G37*
G36*
X112878Y80050D02*
X112200D01*
Y79372D01*
X112347Y79411D01*
X112553Y79530D01*
X112720Y79697D01*
X112839Y79903D01*
X112878Y80050D01*
D02*
G37*
G36*
X111800D02*
X111122D01*
X111161Y79903D01*
X111280Y79697D01*
X111447Y79530D01*
X111653Y79411D01*
X111800Y79372D01*
Y80050D01*
D02*
G37*
G36*
X29729Y80979D02*
X27271D01*
Y78521D01*
X28047D01*
Y74500D01*
X28082Y74327D01*
X28180Y74180D01*
X30372Y71987D01*
Y66665D01*
X29635Y65928D01*
X29400D01*
X29227Y65893D01*
X29167Y65853D01*
X28599D01*
Y65344D01*
X28102D01*
Y67868D01*
X28478Y68244D01*
X29782D01*
Y69909D01*
X29928D01*
Y70862D01*
X28750D01*
X27572D01*
Y69909D01*
X27718D01*
Y69769D01*
X26303D01*
X26178Y69774D01*
Y70502D01*
X25100D01*
X24022D01*
Y69774D01*
X23897Y69769D01*
X23227D01*
X23211Y69796D01*
X23046Y69961D01*
X22843Y70078D01*
X22617Y70139D01*
X22383D01*
X22157Y70078D01*
X21954Y69961D01*
X21789Y69796D01*
X21672Y69593D01*
X21611Y69367D01*
Y69133D01*
X21672Y68907D01*
X21789Y68704D01*
X21954Y68539D01*
X22157Y68422D01*
X22383Y68361D01*
X22617D01*
X22843Y68422D01*
X23046Y68539D01*
X23211Y68704D01*
X23227Y68731D01*
X24168D01*
Y68469D01*
X26032D01*
Y68731D01*
X27331D01*
X27380Y68614D01*
X27216Y68450D01*
X27104Y68282D01*
X27064Y68083D01*
Y65040D01*
X26718Y64694D01*
X26151D01*
Y65453D01*
X25901D01*
Y65853D01*
X25333D01*
X25273Y65893D01*
X25100Y65928D01*
X24213D01*
X23570Y66570D01*
X20703Y69438D01*
Y76392D01*
X22926Y78616D01*
X22946Y78605D01*
X23258Y78521D01*
X23582D01*
X23894Y78605D01*
X24175Y78767D01*
X24403Y78995D01*
X24565Y79276D01*
X24649Y79588D01*
Y79912D01*
X24565Y80224D01*
X24403Y80505D01*
X24175Y80733D01*
X23894Y80895D01*
X23582Y80979D01*
X23258D01*
X22946Y80895D01*
X22665Y80733D01*
X22437Y80505D01*
X22275Y80224D01*
X22191Y79912D01*
Y79588D01*
X22275Y79276D01*
X22286Y79256D01*
X19930Y76900D01*
X19832Y76753D01*
X19797Y76580D01*
Y69250D01*
X19832Y69077D01*
X19930Y68930D01*
X22040Y66820D01*
X21991Y66703D01*
X18750D01*
X18577Y66668D01*
X18430Y66570D01*
X18140Y66280D01*
X18122Y66254D01*
X17096D01*
Y65953D01*
X11379D01*
Y66154D01*
X10121D01*
Y64846D01*
X11379D01*
Y65047D01*
X17096D01*
Y64746D01*
X18904D01*
Y65764D01*
X18938Y65797D01*
X23062D01*
X23705Y65155D01*
X23852Y65057D01*
X24025Y65022D01*
X24049D01*
Y65022D01*
X25100D01*
Y64694D01*
X24902Y64654D01*
X24857Y64625D01*
X24049D01*
Y64197D01*
X24299D01*
Y63777D01*
X24221Y63660D01*
X24186Y63487D01*
Y63251D01*
X24138Y63203D01*
X18938D01*
X18904Y63236D01*
Y64254D01*
X17736D01*
X17670Y64320D01*
X17523Y64418D01*
X17350Y64453D01*
X11379D01*
Y64654D01*
X10121D01*
Y63346D01*
X11379D01*
Y63547D01*
X17096D01*
Y62746D01*
X18122D01*
X18140Y62720D01*
X18430Y62430D01*
X18577Y62332D01*
X18750Y62297D01*
X24325D01*
X24498Y62332D01*
X24520Y62347D01*
X24647Y62279D01*
Y60979D01*
X24321D01*
Y59021D01*
X25879D01*
Y60979D01*
X25553D01*
Y63147D01*
X25901D01*
Y63656D01*
X26933D01*
X27132Y63696D01*
X27300Y63808D01*
X27798Y64306D01*
X28599D01*
Y63147D01*
X29154D01*
X29252Y63082D01*
X29425Y63047D01*
X29550Y63072D01*
X29635D01*
X30278Y62430D01*
X30425Y62332D01*
X30598Y62297D01*
X33775D01*
X33948Y62332D01*
X34095Y62430D01*
X34360Y62695D01*
X34378Y62721D01*
X34764D01*
X36047Y61438D01*
Y60879D01*
X35521D01*
Y59321D01*
X37479D01*
Y60879D01*
X36953D01*
Y61625D01*
X36918Y61798D01*
X36820Y61945D01*
X35404Y63361D01*
Y63522D01*
X38371D01*
Y63321D01*
X39629D01*
Y64629D01*
X38371D01*
Y64428D01*
X35150D01*
X34977Y64393D01*
X34830Y64295D01*
X34764Y64229D01*
X33596D01*
Y63211D01*
X33587Y63203D01*
X30785D01*
X30383Y63605D01*
X30432Y63722D01*
X30500D01*
X30673Y63757D01*
X30820Y63855D01*
X31013Y64047D01*
X31391D01*
X31397Y64037D01*
X31537Y63897D01*
X31709Y63797D01*
X31901Y63746D01*
X32099D01*
X32291Y63797D01*
X32463Y63897D01*
X32603Y64037D01*
X32703Y64209D01*
X32754Y64401D01*
Y64599D01*
X32703Y64791D01*
X32603Y64963D01*
X32463Y65103D01*
X32291Y65203D01*
X32099Y65254D01*
X31901D01*
X31709Y65203D01*
X31537Y65103D01*
X31397Y64963D01*
X31391Y64953D01*
X30825D01*
X30652Y64918D01*
X30505Y64820D01*
X30328Y64643D01*
X30201Y64665D01*
Y65213D01*
X30844Y65855D01*
X30879Y65832D01*
X31052Y65797D01*
X33537D01*
X33596Y65739D01*
Y64721D01*
X35404D01*
Y65022D01*
X38371D01*
Y64821D01*
X39629D01*
Y66129D01*
X38371D01*
Y65928D01*
X35404D01*
Y66229D01*
X34378D01*
X34360Y66255D01*
X34045Y66570D01*
X33898Y66668D01*
X33725Y66703D01*
X31278D01*
Y72175D01*
X31243Y72348D01*
X31145Y72495D01*
X28953Y74688D01*
Y78521D01*
X29729D01*
Y80979D01*
D02*
G37*
G36*
X79309Y80979D02*
X76851D01*
Y78521D01*
X77627D01*
Y75920D01*
X77662Y75747D01*
X77760Y75600D01*
X80297Y73062D01*
Y69271D01*
X78830Y67803D01*
X78732Y67657D01*
X78697Y67483D01*
Y66828D01*
X78349D01*
Y66319D01*
X77852D01*
Y68868D01*
X78228Y69244D01*
X79532D01*
Y70909D01*
X79678D01*
Y71862D01*
X78500D01*
X77322D01*
Y70909D01*
X77226Y70835D01*
X75928D01*
Y71502D01*
X74850D01*
X73772D01*
Y70835D01*
X72922D01*
X72796Y70961D01*
X72593Y71078D01*
X72367Y71139D01*
X72133D01*
X71907Y71078D01*
X71704Y70961D01*
X71539Y70796D01*
X71422Y70593D01*
X71361Y70367D01*
Y70133D01*
X71422Y69907D01*
X71539Y69704D01*
X71704Y69539D01*
X71907Y69422D01*
X72133Y69361D01*
X72367D01*
X72593Y69422D01*
X72796Y69539D01*
X72922Y69665D01*
X73918D01*
Y69469D01*
X75782D01*
Y69665D01*
X77015D01*
X77063Y69547D01*
X76966Y69450D01*
X76854Y69282D01*
X76814Y69083D01*
Y66015D01*
X76468Y65669D01*
X75901D01*
Y66428D01*
X75651D01*
Y66828D01*
X75083D01*
X75023Y66868D01*
X74850Y66903D01*
X74528D01*
X74402Y66928D01*
X73713D01*
X73070Y67570D01*
X70007Y70633D01*
Y76117D01*
X72506Y78616D01*
X72526Y78605D01*
X72838Y78521D01*
X73162D01*
X73474Y78605D01*
X73755Y78767D01*
X73983Y78995D01*
X74145Y79276D01*
X74229Y79588D01*
Y79912D01*
X74145Y80224D01*
X73983Y80505D01*
X73755Y80733D01*
X73474Y80895D01*
X73162Y80979D01*
X72838D01*
X72526Y80895D01*
X72245Y80733D01*
X72017Y80505D01*
X71855Y80224D01*
X71771Y79912D01*
Y79588D01*
X71855Y79276D01*
X71866Y79256D01*
X69234Y76625D01*
X69136Y76478D01*
X69102Y76305D01*
Y70445D01*
X69136Y70272D01*
X69234Y70125D01*
X71540Y67820D01*
X71491Y67703D01*
X69750D01*
X69577Y67668D01*
X69430Y67570D01*
X69140Y67280D01*
X69122Y67254D01*
X68096D01*
Y66953D01*
X64879D01*
Y67154D01*
X63621D01*
Y65846D01*
X64879D01*
Y66047D01*
X68096D01*
Y65746D01*
X69904D01*
Y66764D01*
X69938Y66797D01*
X72562D01*
X73230Y66130D01*
X73377Y66032D01*
X73550Y65997D01*
X73676Y66022D01*
X73799D01*
Y66000D01*
X74388D01*
X74402Y65997D01*
X74850D01*
Y65669D01*
X74652Y65630D01*
X74607Y65600D01*
X73799D01*
Y65172D01*
X74049D01*
Y64752D01*
X73971Y64635D01*
X73936Y64462D01*
Y64226D01*
X73913Y64203D01*
X69938D01*
X69904Y64236D01*
Y65254D01*
X68096D01*
Y64953D01*
X64913D01*
X64879Y64986D01*
Y65654D01*
X63621D01*
Y64346D01*
X64239D01*
X64405Y64180D01*
X64552Y64082D01*
X64725Y64047D01*
X68096D01*
Y63746D01*
X69122D01*
X69140Y63720D01*
X69430Y63430D01*
X69577Y63332D01*
X69750Y63297D01*
X74100D01*
X74270Y63331D01*
X74293Y63335D01*
X74397Y63263D01*
Y61079D01*
X74071D01*
Y59121D01*
X75629D01*
Y61079D01*
X75303D01*
Y64122D01*
X75651D01*
Y64631D01*
X76683D01*
X76882Y64671D01*
X77050Y64783D01*
X77548Y65281D01*
X78349D01*
Y64122D01*
X78888D01*
X79830Y63180D01*
X79977Y63082D01*
X80150Y63047D01*
X83300D01*
X83473Y63082D01*
X83620Y63180D01*
X84110Y63670D01*
X84128Y63696D01*
X84514D01*
X85047Y63162D01*
Y61779D01*
X84521D01*
Y60221D01*
X86479D01*
Y61779D01*
X85953D01*
Y63350D01*
X85918Y63523D01*
X85820Y63670D01*
X85154Y64336D01*
Y64547D01*
X88871D01*
Y64346D01*
X90129D01*
Y65654D01*
X88871D01*
Y65453D01*
X84950D01*
X84777Y65418D01*
X84630Y65320D01*
X84514Y65204D01*
X83346D01*
Y64186D01*
X83112Y63953D01*
X80337D01*
X79951Y64339D01*
Y64697D01*
X81232D01*
X81405Y64732D01*
X81491Y64789D01*
X81651Y64746D01*
X81849D01*
X82041Y64797D01*
X82213Y64897D01*
X82353Y65037D01*
X82453Y65209D01*
X82504Y65401D01*
Y65599D01*
X82453Y65791D01*
X82353Y65963D01*
X82213Y66103D01*
X82041Y66203D01*
X81849Y66254D01*
X81651D01*
X81459Y66203D01*
X81287Y66103D01*
X81147Y65963D01*
X81047Y65791D01*
X80997Y65603D01*
X79951D01*
Y66611D01*
X80137Y66797D01*
X83262D01*
X83346Y66714D01*
Y65696D01*
X85154D01*
Y66022D01*
X88871D01*
Y65846D01*
X90129D01*
Y67154D01*
X88871D01*
Y66928D01*
X85154D01*
Y67204D01*
X84128D01*
X84110Y67230D01*
X83770Y67570D01*
X83623Y67668D01*
X83450Y67703D01*
X80175D01*
X80127Y67820D01*
X81070Y68763D01*
X81168Y68910D01*
X81203Y69083D01*
Y73250D01*
X81168Y73423D01*
X81070Y73570D01*
X78533Y76108D01*
Y78521D01*
X79309D01*
Y80979D01*
D02*
G37*
G36*
X61040Y79550D02*
X59870D01*
Y78380D01*
X60201Y78469D01*
X60514Y78650D01*
X60770Y78906D01*
X60951Y79219D01*
X61040Y79550D01*
D02*
G37*
G36*
X59470D02*
X58300D01*
X58389Y79219D01*
X58570Y78906D01*
X58826Y78650D01*
X59139Y78469D01*
X59470Y78380D01*
Y79550D01*
D02*
G37*
G36*
X96878Y79050D02*
X96200D01*
Y78372D01*
X96347Y78411D01*
X96553Y78530D01*
X96720Y78697D01*
X96839Y78903D01*
X96878Y79050D01*
D02*
G37*
G36*
X95800D02*
X95122D01*
X95161Y78903D01*
X95280Y78697D01*
X95447Y78530D01*
X95653Y78411D01*
X95800Y78372D01*
Y79050D01*
D02*
G37*
G36*
X125729Y80729D02*
X123271D01*
Y78271D01*
X124047D01*
Y76750D01*
X124082Y76577D01*
X124180Y76430D01*
X127797Y72812D01*
Y70343D01*
X127796Y70338D01*
Y68089D01*
X125885Y66178D01*
X125650D01*
X125477Y66143D01*
X125417Y66103D01*
X124849D01*
Y65594D01*
X124269D01*
Y67635D01*
X125377Y68744D01*
X126682D01*
Y70409D01*
X126828D01*
Y71362D01*
X125650D01*
X124472D01*
Y70409D01*
X124618D01*
Y70269D01*
X123453D01*
X123328Y70274D01*
Y71002D01*
X122250D01*
X121172D01*
Y70274D01*
X121047Y70269D01*
X120227D01*
X120211Y70296D01*
X120046Y70461D01*
X119843Y70578D01*
X119617Y70639D01*
X119383D01*
X119157Y70578D01*
X118954Y70461D01*
X118789Y70296D01*
X118672Y70093D01*
X118611Y69867D01*
Y69633D01*
X118672Y69407D01*
X118789Y69204D01*
X118954Y69039D01*
X119157Y68922D01*
X119383Y68861D01*
X119617D01*
X119843Y68922D01*
X120046Y69039D01*
X120211Y69204D01*
X120227Y69231D01*
X121318D01*
Y68969D01*
X123182D01*
Y69231D01*
X124231D01*
X124280Y69114D01*
X123383Y68217D01*
X123271Y68049D01*
X123266Y68026D01*
X123136Y68022D01*
X123089Y68198D01*
X122970Y68403D01*
X122803Y68570D01*
X122597Y68689D01*
X122450Y68728D01*
Y67850D01*
Y66972D01*
X122597Y67011D01*
X122803Y67130D01*
X122970Y67298D01*
X123089Y67503D01*
X123104Y67560D01*
X123231Y67543D01*
Y65290D01*
X122902Y64961D01*
X122401D01*
Y65703D01*
X122151D01*
Y66103D01*
X121583D01*
X121523Y66143D01*
X121350Y66178D01*
X121342D01*
Y66186D01*
X121307Y66359D01*
X121209Y66506D01*
X120895Y66820D01*
X120748Y66918D01*
X120575Y66953D01*
X120340D01*
X117453Y69840D01*
Y76892D01*
X118926Y78366D01*
X118946Y78355D01*
X119258Y78271D01*
X119582D01*
X119894Y78355D01*
X120175Y78517D01*
X120403Y78745D01*
X120565Y79026D01*
X120649Y79338D01*
Y79662D01*
X120565Y79974D01*
X120403Y80255D01*
X120175Y80483D01*
X119894Y80645D01*
X119582Y80729D01*
X119258D01*
X118946Y80645D01*
X118665Y80483D01*
X118437Y80255D01*
X118275Y79974D01*
X118191Y79662D01*
Y79338D01*
X118275Y79026D01*
X118286Y79006D01*
X116680Y77400D01*
X116582Y77253D01*
X116547Y77080D01*
Y69652D01*
X116582Y69479D01*
X116680Y69332D01*
X118942Y67070D01*
X118893Y66953D01*
X115500D01*
X115327Y66918D01*
X115180Y66820D01*
X114890Y66530D01*
X114872Y66504D01*
X113846D01*
Y66203D01*
X110629D01*
Y66404D01*
X109371D01*
Y65096D01*
X110629D01*
Y65297D01*
X113846D01*
Y64996D01*
X115654D01*
Y66014D01*
X115688Y66047D01*
X119965D01*
X120220Y65792D01*
X120299Y65703D01*
X120299D01*
X120299Y65703D01*
Y65275D01*
X120913D01*
X120927Y65272D01*
X121350D01*
Y64957D01*
X121201Y64928D01*
X121168Y64921D01*
X121099Y64875D01*
X120299D01*
Y64447D01*
X120549D01*
Y64027D01*
X120471Y63910D01*
X120436Y63737D01*
Y63501D01*
X120388Y63453D01*
X115687D01*
X115654Y63486D01*
Y64504D01*
X113846D01*
Y64203D01*
X110663D01*
X110629Y64236D01*
Y64904D01*
X109371D01*
Y63596D01*
X109989D01*
X110155Y63430D01*
X110302Y63332D01*
X110475Y63297D01*
X113846D01*
Y62996D01*
X114872D01*
X114890Y62970D01*
X115180Y62680D01*
X115327Y62582D01*
X115500Y62547D01*
X120575D01*
X120748Y62582D01*
X120770Y62596D01*
X120897Y62528D01*
Y60729D01*
X120571D01*
Y58771D01*
X122129D01*
Y60729D01*
X121803D01*
Y63397D01*
X122151D01*
Y63923D01*
X123117D01*
X123315Y63962D01*
X123484Y64075D01*
X123965Y64556D01*
X124849D01*
Y63397D01*
X125417D01*
X125477Y63357D01*
X125650Y63322D01*
X125811D01*
X126524Y62609D01*
X126671Y62511D01*
X126844Y62477D01*
X130929D01*
X131103Y62511D01*
X131250Y62609D01*
X131610Y62970D01*
X131628Y62996D01*
X132014D01*
X132547Y62462D01*
Y61629D01*
X132021D01*
Y60071D01*
X133979D01*
Y61629D01*
X133453D01*
Y62650D01*
X133418Y62823D01*
X133320Y62970D01*
X133110Y63180D01*
X133159Y63297D01*
X133420D01*
X133593Y63332D01*
X133740Y63430D01*
X134107Y63797D01*
X134996D01*
Y63596D01*
X136254D01*
Y64904D01*
X134996D01*
Y64703D01*
X133920D01*
X133747Y64668D01*
X133600Y64570D01*
X133232Y64203D01*
X132654D01*
Y64504D01*
X130846D01*
Y63486D01*
X130742Y63382D01*
X127032D01*
X126569Y63845D01*
X126607Y63950D01*
X126629Y63972D01*
X127507D01*
X127680Y64007D01*
X127732Y64041D01*
X127901Y63996D01*
X128099D01*
X128291Y64047D01*
X128463Y64147D01*
X128603Y64287D01*
X128703Y64459D01*
X128754Y64651D01*
Y64849D01*
X128703Y65041D01*
X128603Y65213D01*
X128463Y65353D01*
X128291Y65453D01*
X128099Y65504D01*
X127901D01*
X127709Y65453D01*
X127537Y65353D01*
X127397Y65213D01*
X127297Y65041D01*
X127254Y64878D01*
X126451D01*
Y65463D01*
X128249Y67261D01*
X130080Y65430D01*
X130227Y65332D01*
X130400Y65297D01*
X130846D01*
Y64996D01*
X132654D01*
Y65297D01*
X134996D01*
Y65096D01*
X136254D01*
Y66404D01*
X134996D01*
Y66203D01*
X132654D01*
Y66504D01*
X130846D01*
Y66203D01*
X130588D01*
X128702Y68089D01*
Y70334D01*
X128703Y70339D01*
Y73000D01*
X128668Y73173D01*
X128570Y73320D01*
X124953Y76938D01*
Y78271D01*
X125729D01*
Y80729D01*
D02*
G37*
G36*
X142367Y76139D02*
X142133D01*
X141907Y76078D01*
X141704Y75961D01*
X141578Y75835D01*
X140554D01*
Y76104D01*
X139146D01*
Y74396D01*
X140554D01*
Y74665D01*
X141578D01*
X141704Y74539D01*
X141907Y74422D01*
X142133Y74361D01*
X142367D01*
X142593Y74422D01*
X142796Y74539D01*
X142961Y74704D01*
X143078Y74907D01*
X143139Y75133D01*
Y75367D01*
X143078Y75593D01*
X142961Y75796D01*
X142796Y75961D01*
X142593Y76078D01*
X142367Y76139D01*
D02*
G37*
G36*
X134916Y82204D02*
X134664D01*
X134422Y82139D01*
X134204Y82013D01*
X134027Y81836D01*
X133901Y81618D01*
X133836Y81376D01*
Y81124D01*
X133901Y80882D01*
X134027Y80664D01*
X134204Y80487D01*
X134251Y80460D01*
Y75954D01*
X133846D01*
Y75769D01*
X132797D01*
X132713Y75853D01*
X132541Y75953D01*
X132349Y76004D01*
X132151D01*
X131959Y75953D01*
X131787Y75853D01*
X131647Y75713D01*
X131547Y75541D01*
X131496Y75349D01*
Y75151D01*
X131547Y74959D01*
X131647Y74787D01*
X131787Y74647D01*
X131959Y74547D01*
X132151Y74496D01*
X132349D01*
X132541Y74547D01*
X132713Y74647D01*
X132797Y74731D01*
X133846D01*
Y74546D01*
X135654D01*
Y74731D01*
X137046D01*
Y74396D01*
X138454D01*
Y76104D01*
X137046D01*
Y75769D01*
X135654D01*
Y75954D01*
X135289D01*
Y80437D01*
X135376Y80487D01*
X135553Y80664D01*
X135679Y80882D01*
X135744Y81124D01*
Y81376D01*
X135679Y81618D01*
X135553Y81836D01*
X135376Y82013D01*
X135158Y82139D01*
X134916Y82204D01*
D02*
G37*
G36*
X93367Y75389D02*
X93133D01*
X92907Y75328D01*
X92704Y75211D01*
X92578Y75085D01*
X91304D01*
Y75354D01*
X89896D01*
Y73646D01*
X91304D01*
Y73915D01*
X92578D01*
X92704Y73789D01*
X92907Y73672D01*
X93133Y73611D01*
X93367D01*
X93593Y73672D01*
X93796Y73789D01*
X93961Y73954D01*
X94078Y74157D01*
X94139Y74383D01*
Y74617D01*
X94078Y74843D01*
X93961Y75046D01*
X93796Y75211D01*
X93593Y75328D01*
X93367Y75389D01*
D02*
G37*
G36*
X88666Y82204D02*
X88414D01*
X88172Y82139D01*
X87954Y82013D01*
X87777Y81836D01*
X87651Y81618D01*
X87586Y81376D01*
Y81124D01*
X87651Y80882D01*
X87777Y80664D01*
X87954Y80487D01*
X88001Y80460D01*
Y75354D01*
X87796D01*
Y75019D01*
X86654D01*
Y75204D01*
X84846D01*
Y75019D01*
X83797D01*
X83713Y75103D01*
X83541Y75203D01*
X83349Y75254D01*
X83151D01*
X82959Y75203D01*
X82787Y75103D01*
X82647Y74963D01*
X82547Y74791D01*
X82496Y74599D01*
Y74401D01*
X82547Y74209D01*
X82647Y74037D01*
X82787Y73897D01*
X82959Y73797D01*
X83151Y73746D01*
X83349D01*
X83541Y73797D01*
X83713Y73897D01*
X83797Y73981D01*
X84846D01*
Y73796D01*
X86654D01*
Y73981D01*
X87796D01*
Y73646D01*
X89204D01*
Y75354D01*
X89039D01*
Y80437D01*
X89126Y80487D01*
X89303Y80664D01*
X89429Y80882D01*
X89494Y81124D01*
Y81376D01*
X89429Y81618D01*
X89303Y81836D01*
X89126Y82013D01*
X88908Y82139D01*
X88666Y82204D01*
D02*
G37*
G36*
X43867Y75139D02*
X43633D01*
X43407Y75078D01*
X43204Y74961D01*
X43078Y74835D01*
X41554D01*
Y75104D01*
X40146D01*
Y73396D01*
X41554D01*
Y73665D01*
X43078D01*
X43204Y73539D01*
X43407Y73422D01*
X43633Y73361D01*
X43867D01*
X44093Y73422D01*
X44296Y73539D01*
X44461Y73704D01*
X44578Y73907D01*
X44639Y74133D01*
Y74367D01*
X44578Y74593D01*
X44461Y74796D01*
X44296Y74961D01*
X44093Y75078D01*
X43867Y75139D01*
D02*
G37*
G36*
X38876Y82204D02*
X38624D01*
X38382Y82139D01*
X38164Y82013D01*
X37987Y81836D01*
X37861Y81618D01*
X37796Y81376D01*
Y81124D01*
X37861Y80882D01*
X37987Y80664D01*
X38164Y80487D01*
X38231Y80448D01*
Y75104D01*
X38046D01*
Y74763D01*
X37488D01*
X37459Y74769D01*
X36904D01*
Y74954D01*
X35096D01*
Y74769D01*
X34297D01*
X34213Y74853D01*
X34041Y74953D01*
X33849Y75004D01*
X33651D01*
X33459Y74953D01*
X33287Y74853D01*
X33147Y74713D01*
X33047Y74541D01*
X32996Y74349D01*
Y74151D01*
X33047Y73959D01*
X33147Y73787D01*
X33287Y73647D01*
X33459Y73547D01*
X33651Y73496D01*
X33849D01*
X34041Y73547D01*
X34213Y73647D01*
X34297Y73731D01*
X35096D01*
Y73546D01*
X36904D01*
Y73731D01*
X37436D01*
X37465Y73725D01*
X38046D01*
Y73396D01*
X39454D01*
Y75104D01*
X39269D01*
Y80448D01*
X39336Y80487D01*
X39513Y80664D01*
X39639Y80882D01*
X39704Y81124D01*
Y81376D01*
X39639Y81618D01*
X39513Y81836D01*
X39336Y82013D01*
X39118Y82139D01*
X38876Y82204D01*
D02*
G37*
G36*
X75700Y74878D02*
Y74200D01*
X76378D01*
X76339Y74347D01*
X76220Y74553D01*
X76053Y74720D01*
X75847Y74839D01*
X75700Y74878D01*
D02*
G37*
G36*
X75300D02*
X75153Y74839D01*
X74947Y74720D01*
X74780Y74553D01*
X74661Y74347D01*
X74622Y74200D01*
X75300D01*
Y74878D01*
D02*
G37*
G36*
X12700Y74576D02*
Y73950D01*
X13326D01*
X13292Y74078D01*
X13180Y74272D01*
X13022Y74430D01*
X12828Y74542D01*
X12700Y74576D01*
D02*
G37*
G36*
X12300D02*
X12172Y74542D01*
X11978Y74430D01*
X11820Y74272D01*
X11708Y74078D01*
X11674Y73950D01*
X12300D01*
Y74576D01*
D02*
G37*
G36*
X135800Y74000D02*
X134950D01*
Y73350D01*
X135800D01*
Y74000D01*
D02*
G37*
G36*
X134550D02*
X133700D01*
Y73350D01*
X134550D01*
Y74000D01*
D02*
G37*
G36*
X123200Y73878D02*
Y73200D01*
X123878D01*
X123839Y73347D01*
X123720Y73553D01*
X123553Y73720D01*
X123347Y73839D01*
X123200Y73878D01*
D02*
G37*
G36*
X122800D02*
X122653Y73839D01*
X122447Y73720D01*
X122280Y73553D01*
X122161Y73347D01*
X122122Y73200D01*
X122800D01*
Y73878D01*
D02*
G37*
G36*
X105950D02*
Y73200D01*
X106628D01*
X106589Y73347D01*
X106470Y73553D01*
X106303Y73720D01*
X106097Y73839D01*
X105950Y73878D01*
D02*
G37*
G36*
X105550D02*
X105403Y73839D01*
X105197Y73720D01*
X105030Y73553D01*
X104911Y73347D01*
X104872Y73200D01*
X105550D01*
Y73878D01*
D02*
G37*
G36*
X25300D02*
Y73200D01*
X25978D01*
X25939Y73347D01*
X25820Y73553D01*
X25653Y73720D01*
X25448Y73839D01*
X25300Y73878D01*
D02*
G37*
G36*
X24900D02*
X24753Y73839D01*
X24548Y73720D01*
X24380Y73553D01*
X24261Y73347D01*
X24222Y73200D01*
X24900D01*
Y73878D01*
D02*
G37*
G36*
X76378Y73800D02*
X75700D01*
Y73122D01*
X75847Y73161D01*
X76053Y73280D01*
X76220Y73447D01*
X76339Y73653D01*
X76378Y73800D01*
D02*
G37*
G36*
X75300D02*
X74622D01*
X74661Y73653D01*
X74780Y73447D01*
X74947Y73280D01*
X75153Y73161D01*
X75300Y73122D01*
Y73800D01*
D02*
G37*
G36*
X13326Y73550D02*
X12700D01*
Y72924D01*
X12828Y72958D01*
X13022Y73070D01*
X13180Y73228D01*
X13292Y73422D01*
X13326Y73550D01*
D02*
G37*
G36*
X12300D02*
X11674D01*
X11708Y73422D01*
X11820Y73228D01*
X11978Y73070D01*
X12172Y72958D01*
X12300Y72924D01*
Y73550D01*
D02*
G37*
G36*
X86800Y73250D02*
X85950D01*
Y72600D01*
X86800D01*
Y73250D01*
D02*
G37*
G36*
X85550D02*
X84700D01*
Y72600D01*
X85550D01*
Y73250D01*
D02*
G37*
G36*
X37050Y73000D02*
X36200D01*
Y72350D01*
X37050D01*
Y73000D01*
D02*
G37*
G36*
X35800D02*
X34950D01*
Y72350D01*
X35800D01*
Y73000D01*
D02*
G37*
G36*
X135800Y72950D02*
X134950D01*
Y72300D01*
X135800D01*
Y72950D01*
D02*
G37*
G36*
X134550D02*
X133700D01*
Y72300D01*
X134550D01*
Y72950D01*
D02*
G37*
G36*
X79678Y73214D02*
X78700D01*
Y72262D01*
X79678D01*
Y73214D01*
D02*
G37*
G36*
X78300D02*
X77322D01*
Y72262D01*
X78300D01*
Y73214D01*
D02*
G37*
G36*
X106628Y72800D02*
X105950D01*
Y72122D01*
X106097Y72161D01*
X106303Y72280D01*
X106470Y72447D01*
X106589Y72653D01*
X106628Y72800D01*
D02*
G37*
G36*
X105550D02*
X104872D01*
X104911Y72653D01*
X105030Y72447D01*
X105197Y72280D01*
X105403Y72161D01*
X105550Y72122D01*
Y72800D01*
D02*
G37*
G36*
X25978D02*
X25300D01*
Y72122D01*
X25448Y72161D01*
X25653Y72280D01*
X25820Y72447D01*
X25939Y72653D01*
X25978Y72800D01*
D02*
G37*
G36*
X24900D02*
X24222D01*
X24261Y72653D01*
X24380Y72447D01*
X24548Y72280D01*
X24753Y72161D01*
X24900Y72122D01*
Y72800D01*
D02*
G37*
G36*
X59950Y72923D02*
Y71950D01*
X60923D01*
X60854Y72207D01*
X60698Y72478D01*
X60478Y72698D01*
X60207Y72854D01*
X59950Y72923D01*
D02*
G37*
G36*
X59550D02*
X59293Y72854D01*
X59022Y72698D01*
X58802Y72478D01*
X58646Y72207D01*
X58577Y71950D01*
X59550D01*
Y72923D01*
D02*
G37*
G36*
X75928Y72629D02*
X75050D01*
Y71902D01*
X75928D01*
Y72629D01*
D02*
G37*
G36*
X74650D02*
X73772D01*
Y71902D01*
X74650D01*
Y72629D01*
D02*
G37*
G36*
X126828Y72714D02*
X125850D01*
Y71762D01*
X126828D01*
Y72714D01*
D02*
G37*
G36*
X125450D02*
X124472D01*
Y71762D01*
X125450D01*
Y72714D01*
D02*
G37*
G36*
X86800Y72200D02*
X85950D01*
Y71550D01*
X86800D01*
Y72200D01*
D02*
G37*
G36*
X85550D02*
X84700D01*
Y71550D01*
X85550D01*
Y72200D01*
D02*
G37*
G36*
X123878Y72800D02*
X122122D01*
X122161Y72653D01*
X122280Y72447D01*
X122447Y72280D01*
X122489Y72256D01*
X122455Y72129D01*
X122450D01*
Y71402D01*
X123328D01*
Y72129D01*
X123423Y72205D01*
X123553Y72280D01*
X123720Y72447D01*
X123839Y72653D01*
X123878Y72800D01*
D02*
G37*
G36*
X122050Y72129D02*
X121172D01*
Y71402D01*
X122050D01*
Y72129D01*
D02*
G37*
G36*
X37050Y71950D02*
X36200D01*
Y71300D01*
X37050D01*
Y71950D01*
D02*
G37*
G36*
X35800D02*
X34950D01*
Y71300D01*
X35800D01*
Y71950D01*
D02*
G37*
G36*
X29928Y72214D02*
X28950D01*
Y71262D01*
X29928D01*
Y72214D01*
D02*
G37*
G36*
X28550D02*
X27572D01*
Y71262D01*
X28550D01*
Y72214D01*
D02*
G37*
G36*
X26178Y71629D02*
X25300D01*
Y70902D01*
X26178D01*
Y71629D01*
D02*
G37*
G36*
X24900D02*
X24022D01*
Y70902D01*
X24900D01*
Y71629D01*
D02*
G37*
G36*
X65979Y80979D02*
X63521D01*
Y78521D01*
X64165D01*
Y72612D01*
X64112Y72581D01*
X63919Y72388D01*
X63782Y72151D01*
X63711Y71887D01*
Y71613D01*
X63782Y71349D01*
X63919Y71112D01*
X64112Y70919D01*
X64349Y70782D01*
X64613Y70711D01*
X64887D01*
X65151Y70782D01*
X65388Y70919D01*
X65581Y71112D01*
X65718Y71349D01*
X65789Y71613D01*
Y71887D01*
X65718Y72151D01*
X65581Y72388D01*
X65388Y72581D01*
X65335Y72612D01*
Y78521D01*
X65979D01*
Y80979D01*
D02*
G37*
G36*
X60923Y71550D02*
X59950D01*
Y70577D01*
X60207Y70646D01*
X60478Y70802D01*
X60698Y71022D01*
X60854Y71293D01*
X60923Y71550D01*
D02*
G37*
G36*
X59550D02*
X58577D01*
X58646Y71293D01*
X58802Y71022D01*
X59022Y70802D01*
X59293Y70646D01*
X59550Y70577D01*
Y71550D01*
D02*
G37*
G36*
X9200Y71076D02*
Y70450D01*
X9826D01*
X9792Y70578D01*
X9680Y70772D01*
X9522Y70930D01*
X9328Y71042D01*
X9200Y71076D01*
D02*
G37*
G36*
X8800D02*
X8672Y71042D01*
X8478Y70930D01*
X8320Y70772D01*
X8208Y70578D01*
X8174Y70450D01*
X8800D01*
Y71076D01*
D02*
G37*
G36*
X158150Y70628D02*
Y69950D01*
X158828D01*
X158789Y70097D01*
X158670Y70303D01*
X158503Y70470D01*
X158297Y70589D01*
X158150Y70628D01*
D02*
G37*
G36*
X157750D02*
X157603Y70589D01*
X157397Y70470D01*
X157230Y70303D01*
X157111Y70097D01*
X157072Y69950D01*
X157750D01*
Y70628D01*
D02*
G37*
G36*
X52950D02*
Y69950D01*
X53628D01*
X53589Y70097D01*
X53470Y70303D01*
X53303Y70470D01*
X53097Y70589D01*
X52950Y70628D01*
D02*
G37*
G36*
X52550D02*
X52403Y70589D01*
X52197Y70470D01*
X52030Y70303D01*
X51911Y70097D01*
X51872Y69950D01*
X52550D01*
Y70628D01*
D02*
G37*
G36*
X9826Y70050D02*
X9200D01*
Y69424D01*
X9328Y69458D01*
X9522Y69570D01*
X9680Y69728D01*
X9792Y69922D01*
X9826Y70050D01*
D02*
G37*
G36*
X8800D02*
X8174D01*
X8208Y69922D01*
X8320Y69728D01*
X8478Y69570D01*
X8672Y69458D01*
X8800Y69424D01*
Y70050D01*
D02*
G37*
G36*
X94950Y69576D02*
Y68950D01*
X95576D01*
X95542Y69078D01*
X95430Y69272D01*
X95272Y69430D01*
X95078Y69542D01*
X94950Y69576D01*
D02*
G37*
G36*
X94550D02*
X94422Y69542D01*
X94228Y69430D01*
X94070Y69272D01*
X93958Y69078D01*
X93924Y68950D01*
X94550D01*
Y69576D01*
D02*
G37*
G36*
X53628Y69550D02*
X52950D01*
Y68872D01*
X53097Y68911D01*
X53303Y69030D01*
X53470Y69197D01*
X53589Y69403D01*
X53628Y69550D01*
D02*
G37*
G36*
X52550D02*
X51872D01*
X51911Y69403D01*
X52030Y69197D01*
X52197Y69030D01*
X52403Y68911D01*
X52550Y68872D01*
Y69550D01*
D02*
G37*
G36*
X158828D02*
X158150D01*
Y68872D01*
X158297Y68911D01*
X158503Y69030D01*
X158670Y69197D01*
X158789Y69403D01*
X158828Y69550D01*
D02*
G37*
G36*
X157750D02*
X157072D01*
X157111Y69403D01*
X157230Y69197D01*
X157397Y69030D01*
X157603Y68911D01*
X157750Y68872D01*
Y69550D01*
D02*
G37*
G36*
X134120Y69378D02*
Y68700D01*
X134798D01*
X134759Y68847D01*
X134640Y69053D01*
X134472Y69220D01*
X134267Y69339D01*
X134120Y69378D01*
D02*
G37*
G36*
X133720D02*
X133572Y69339D01*
X133367Y69220D01*
X133200Y69053D01*
X133081Y68847D01*
X133042Y68700D01*
X133720D01*
Y69378D01*
D02*
G37*
G36*
X75409Y69189D02*
Y68511D01*
X76087D01*
X76047Y68658D01*
X75929Y68863D01*
X75761Y69031D01*
X75556Y69149D01*
X75409Y69189D01*
D02*
G37*
G36*
X75009D02*
X74861Y69149D01*
X74656Y69031D01*
X74488Y68863D01*
X74370Y68658D01*
X74330Y68511D01*
X75009D01*
Y69189D01*
D02*
G37*
G36*
X122050Y68728D02*
X121903Y68689D01*
X121697Y68570D01*
X121530Y68403D01*
X121411Y68198D01*
X121372Y68050D01*
X122050D01*
Y68728D01*
D02*
G37*
G36*
X95576Y68550D02*
X94950D01*
Y67924D01*
X95078Y67958D01*
X95272Y68070D01*
X95430Y68228D01*
X95542Y68422D01*
X95576Y68550D01*
D02*
G37*
G36*
X94550D02*
X93924D01*
X93958Y68422D01*
X94070Y68228D01*
X94228Y68070D01*
X94422Y67958D01*
X94550Y67924D01*
Y68550D01*
D02*
G37*
G36*
X134798Y68300D02*
X134120D01*
Y67622D01*
X134267Y67661D01*
X134472Y67780D01*
X134640Y67947D01*
X134759Y68153D01*
X134798Y68300D01*
D02*
G37*
G36*
X133720D02*
X133042D01*
X133081Y68153D01*
X133200Y67947D01*
X133367Y67780D01*
X133572Y67661D01*
X133720Y67622D01*
Y68300D01*
D02*
G37*
G36*
X25664Y68166D02*
Y67539D01*
X26291D01*
X26257Y67667D01*
X26145Y67861D01*
X25986Y68019D01*
X25793Y68131D01*
X25664Y68166D01*
D02*
G37*
G36*
X25264D02*
X25136Y68131D01*
X24943Y68019D01*
X24784Y67861D01*
X24672Y67667D01*
X24638Y67539D01*
X25264D01*
Y68166D01*
D02*
G37*
G36*
X76087Y68111D02*
X75409D01*
Y67433D01*
X75556Y67472D01*
X75761Y67591D01*
X75929Y67758D01*
X76047Y67963D01*
X76087Y68111D01*
D02*
G37*
G36*
X75009D02*
X74330D01*
X74370Y67963D01*
X74488Y67758D01*
X74656Y67591D01*
X74861Y67472D01*
X75009Y67433D01*
Y68111D01*
D02*
G37*
G36*
X122050Y67650D02*
X121372D01*
X121411Y67503D01*
X121530Y67298D01*
X121697Y67130D01*
X121903Y67011D01*
X122050Y66972D01*
Y67650D01*
D02*
G37*
G36*
X26291Y67139D02*
X25664D01*
Y66513D01*
X25793Y66547D01*
X25986Y66659D01*
X26145Y66817D01*
X26257Y67011D01*
X26291Y67139D01*
D02*
G37*
G36*
X25264D02*
X24638D01*
X24672Y67011D01*
X24784Y66817D01*
X24943Y66659D01*
X25136Y66547D01*
X25264Y66513D01*
Y67139D01*
D02*
G37*
G36*
X72115Y66324D02*
Y65697D01*
X72742D01*
X72707Y65825D01*
X72596Y66019D01*
X72437Y66178D01*
X72244Y66289D01*
X72115Y66324D01*
D02*
G37*
G36*
X71715D02*
X71587Y66289D01*
X71394Y66178D01*
X71235Y66019D01*
X71123Y65825D01*
X71089Y65697D01*
X71715D01*
Y66324D01*
D02*
G37*
G36*
X118466Y65610D02*
Y64984D01*
X119092D01*
X119058Y65112D01*
X118946Y65306D01*
X118787Y65464D01*
X118594Y65576D01*
X118466Y65610D01*
D02*
G37*
G36*
X118066D02*
X117937Y65576D01*
X117744Y65464D01*
X117585Y65306D01*
X117474Y65112D01*
X117439Y64984D01*
X118066D01*
Y65610D01*
D02*
G37*
G36*
X146700Y65378D02*
Y64700D01*
X147378D01*
X147339Y64847D01*
X147220Y65053D01*
X147053Y65220D01*
X146847Y65339D01*
X146700Y65378D01*
D02*
G37*
G36*
X146300D02*
X146153Y65339D01*
X145947Y65220D01*
X145780Y65053D01*
X145661Y64847D01*
X145622Y64700D01*
X146300D01*
Y65378D01*
D02*
G37*
G36*
X92450D02*
Y64700D01*
X93128D01*
X93089Y64847D01*
X92970Y65053D01*
X92803Y65220D01*
X92597Y65339D01*
X92450Y65378D01*
D02*
G37*
G36*
X92050D02*
X91903Y65339D01*
X91697Y65220D01*
X91530Y65053D01*
X91411Y64847D01*
X91372Y64700D01*
X92050D01*
Y65378D01*
D02*
G37*
G36*
X22255Y65321D02*
Y64695D01*
X22882D01*
X22847Y64823D01*
X22735Y65017D01*
X22577Y65175D01*
X22383Y65287D01*
X22255Y65321D01*
D02*
G37*
G36*
X21855D02*
X21727Y65287D01*
X21533Y65175D01*
X21375Y65017D01*
X21263Y64823D01*
X21229Y64695D01*
X21855D01*
Y65321D01*
D02*
G37*
G36*
X72742Y65297D02*
X72115D01*
Y64671D01*
X72244Y64705D01*
X72437Y64817D01*
X72596Y64975D01*
X72707Y65169D01*
X72742Y65297D01*
D02*
G37*
G36*
X71715D02*
X71089D01*
X71123Y65169D01*
X71235Y64975D01*
X71394Y64817D01*
X71587Y64705D01*
X71715Y64671D01*
Y65297D01*
D02*
G37*
G36*
X49200Y64878D02*
Y64200D01*
X49878D01*
X49839Y64347D01*
X49720Y64553D01*
X49553Y64720D01*
X49347Y64839D01*
X49200Y64878D01*
D02*
G37*
G36*
X48800D02*
X48653Y64839D01*
X48447Y64720D01*
X48280Y64553D01*
X48161Y64347D01*
X48122Y64200D01*
X48800D01*
Y64878D01*
D02*
G37*
G36*
X119092Y64584D02*
X118466D01*
Y63958D01*
X118594Y63992D01*
X118787Y64104D01*
X118946Y64262D01*
X119058Y64456D01*
X119092Y64584D01*
D02*
G37*
G36*
X118066D02*
X117439D01*
X117474Y64456D01*
X117585Y64262D01*
X117744Y64104D01*
X117937Y63992D01*
X118066Y63958D01*
Y64584D01*
D02*
G37*
G36*
X22882Y64295D02*
X22255D01*
Y63669D01*
X22383Y63703D01*
X22577Y63815D01*
X22735Y63973D01*
X22847Y64167D01*
X22882Y64295D01*
D02*
G37*
G36*
X21855D02*
X21229D01*
X21263Y64167D01*
X21375Y63973D01*
X21533Y63815D01*
X21727Y63703D01*
X21855Y63669D01*
Y64295D01*
D02*
G37*
G36*
X93128Y64300D02*
X92450D01*
Y63622D01*
X92597Y63661D01*
X92803Y63780D01*
X92970Y63947D01*
X93089Y64153D01*
X93128Y64300D01*
D02*
G37*
G36*
X92050D02*
X91372D01*
X91411Y64153D01*
X91530Y63947D01*
X91697Y63780D01*
X91903Y63661D01*
X92050Y63622D01*
Y64300D01*
D02*
G37*
G36*
X147378D02*
X146700D01*
Y63622D01*
X146847Y63661D01*
X147053Y63780D01*
X147220Y63947D01*
X147339Y64153D01*
X147378Y64300D01*
D02*
G37*
G36*
X146300D02*
X145622D01*
X145661Y64153D01*
X145780Y63947D01*
X145947Y63780D01*
X146153Y63661D01*
X146300Y63622D01*
Y64300D01*
D02*
G37*
G36*
X49878Y63800D02*
X49200D01*
Y63122D01*
X49347Y63161D01*
X49553Y63280D01*
X49720Y63447D01*
X49839Y63653D01*
X49878Y63800D01*
D02*
G37*
G36*
X48800D02*
X48122D01*
X48161Y63653D01*
X48280Y63447D01*
X48447Y63280D01*
X48653Y63161D01*
X48800Y63122D01*
Y63800D01*
D02*
G37*
G36*
X142637Y64789D02*
X142363D01*
X142099Y64718D01*
X141862Y64581D01*
X141669Y64388D01*
X141532Y64151D01*
X141461Y63887D01*
Y63613D01*
X141497Y63480D01*
X137892Y59876D01*
X137775Y59925D01*
Y60300D01*
X137000D01*
X136225D01*
Y59700D01*
X136263D01*
X136371Y59654D01*
Y59519D01*
X133979D01*
Y59779D01*
X132021D01*
Y59519D01*
X128454D01*
Y59904D01*
X127046D01*
Y58096D01*
X128454D01*
Y58481D01*
X132021D01*
Y58221D01*
X133979D01*
Y58481D01*
X136371D01*
Y58346D01*
X137629D01*
Y58524D01*
X137793D01*
X137992Y58564D01*
X138160Y58676D01*
X142230Y62747D01*
X142363Y62711D01*
X142637D01*
X142901Y62782D01*
X143138Y62919D01*
X143331Y63112D01*
X143468Y63349D01*
X143539Y63613D01*
Y63887D01*
X143468Y64151D01*
X143331Y64388D01*
X143138Y64581D01*
X142901Y64718D01*
X142637Y64789D01*
D02*
G37*
G36*
X101950Y63378D02*
Y62700D01*
X102628D01*
X102589Y62847D01*
X102470Y63053D01*
X102303Y63220D01*
X102097Y63339D01*
X101950Y63378D01*
D02*
G37*
G36*
X101550D02*
X101403Y63339D01*
X101197Y63220D01*
X101030Y63053D01*
X100911Y62847D01*
X100872Y62700D01*
X101550D01*
Y63378D01*
D02*
G37*
G36*
X96137Y64289D02*
X95863D01*
X95599Y64218D01*
X95362Y64081D01*
X95169Y63888D01*
X95032Y63651D01*
X94961Y63387D01*
Y63113D01*
X94997Y62981D01*
X91902Y59886D01*
X91775Y59939D01*
Y60450D01*
X91000D01*
X90225D01*
Y59850D01*
X90263D01*
X90277Y59844D01*
X90306Y59694D01*
X90281Y59669D01*
X86479D01*
Y59929D01*
X84521D01*
Y59719D01*
X82054D01*
Y60154D01*
X80646D01*
Y58346D01*
X82054D01*
Y58681D01*
X84521D01*
Y58371D01*
X86479D01*
Y58631D01*
X90371D01*
Y58496D01*
X91629D01*
Y58631D01*
X91900D01*
X92099Y58671D01*
X92267Y58783D01*
X95730Y62247D01*
X95863Y62211D01*
X96137D01*
X96401Y62282D01*
X96638Y62419D01*
X96831Y62612D01*
X96968Y62849D01*
X97039Y63113D01*
Y63387D01*
X96968Y63651D01*
X96831Y63888D01*
X96638Y64081D01*
X96401Y64218D01*
X96137Y64289D01*
D02*
G37*
G36*
X82950Y62576D02*
Y61950D01*
X83576D01*
X83542Y62078D01*
X83430Y62272D01*
X83272Y62430D01*
X83078Y62542D01*
X82950Y62576D01*
D02*
G37*
G36*
X82550D02*
X82422Y62542D01*
X82228Y62430D01*
X82070Y62272D01*
X81958Y62078D01*
X81924Y61950D01*
X82550D01*
Y62576D01*
D02*
G37*
G36*
X102628Y62300D02*
X101950D01*
Y61622D01*
X102097Y61661D01*
X102303Y61780D01*
X102470Y61947D01*
X102589Y62153D01*
X102628Y62300D01*
D02*
G37*
G36*
X101550D02*
X100872D01*
X100911Y62153D01*
X101030Y61947D01*
X101197Y61780D01*
X101403Y61661D01*
X101550Y61622D01*
Y62300D01*
D02*
G37*
G36*
X128950Y61826D02*
Y61200D01*
X129576D01*
X129542Y61328D01*
X129430Y61522D01*
X129272Y61680D01*
X129078Y61792D01*
X128950Y61826D01*
D02*
G37*
G36*
X128550D02*
X128422Y61792D01*
X128228Y61680D01*
X128070Y61522D01*
X127958Y61328D01*
X127924Y61200D01*
X128550D01*
Y61826D01*
D02*
G37*
G36*
X83576Y61550D02*
X82950D01*
Y60924D01*
X83078Y60958D01*
X83272Y61070D01*
X83430Y61228D01*
X83542Y61422D01*
X83576Y61550D01*
D02*
G37*
G36*
X82550D02*
X81924D01*
X81958Y61422D01*
X82070Y61228D01*
X82228Y61070D01*
X82422Y60958D01*
X82550Y60924D01*
Y61550D01*
D02*
G37*
G36*
X91775Y61450D02*
X91200D01*
Y60850D01*
X91775D01*
Y61450D01*
D02*
G37*
G36*
X90800D02*
X90225D01*
Y60850D01*
X90800D01*
Y61450D01*
D02*
G37*
G36*
X137775Y61300D02*
X137200D01*
Y60700D01*
X137775D01*
Y61300D01*
D02*
G37*
G36*
X136800D02*
X136225D01*
Y60700D01*
X136800D01*
Y61300D01*
D02*
G37*
G36*
X31450Y61326D02*
Y60700D01*
X32076D01*
X32042Y60828D01*
X31930Y61022D01*
X31772Y61180D01*
X31578Y61292D01*
X31450Y61326D01*
D02*
G37*
G36*
X31050D02*
X30922Y61292D01*
X30728Y61180D01*
X30570Y61022D01*
X30458Y60828D01*
X30424Y60700D01*
X31050D01*
Y61326D01*
D02*
G37*
G36*
X73779Y61079D02*
X72221D01*
Y60619D01*
X69904D01*
Y60804D01*
X68096D01*
Y60619D01*
X64702D01*
Y60804D01*
X62894D01*
Y59396D01*
X64702D01*
Y59581D01*
X68096D01*
Y59396D01*
X69904D01*
Y59581D01*
X72221D01*
Y59121D01*
X73779D01*
Y61079D01*
D02*
G37*
G36*
X24029Y60979D02*
X22471D01*
Y60514D01*
X21484D01*
X21458Y60519D01*
X20404D01*
Y60704D01*
X18596D01*
Y60519D01*
X16904D01*
Y60704D01*
X15096D01*
Y59296D01*
X16904D01*
Y59481D01*
X18596D01*
Y59296D01*
X20404D01*
Y59481D01*
X21437D01*
X21463Y59476D01*
X22471D01*
Y59021D01*
X24029D01*
Y60979D01*
D02*
G37*
G36*
X52950Y61128D02*
Y60450D01*
X53628D01*
X53589Y60597D01*
X53470Y60803D01*
X53303Y60970D01*
X53097Y61089D01*
X52950Y61128D01*
D02*
G37*
G36*
X52550D02*
X52403Y61089D01*
X52197Y60970D01*
X52030Y60803D01*
X51911Y60597D01*
X51872Y60450D01*
X52550D01*
Y61128D01*
D02*
G37*
G36*
X120279Y60729D02*
X118721D01*
Y60269D01*
X116904D01*
Y60454D01*
X115096D01*
Y60269D01*
X112904D01*
Y60454D01*
X111096D01*
Y59046D01*
X112904D01*
Y59231D01*
X115096D01*
Y59046D01*
X116904D01*
Y59231D01*
X118721D01*
Y58771D01*
X120279D01*
Y60729D01*
D02*
G37*
G36*
X129576Y60800D02*
X128950D01*
Y60174D01*
X129078Y60208D01*
X129272Y60320D01*
X129430Y60478D01*
X129542Y60672D01*
X129576Y60800D01*
D02*
G37*
G36*
X128550D02*
X127924D01*
X127958Y60672D01*
X128070Y60478D01*
X128228Y60320D01*
X128422Y60208D01*
X128550Y60174D01*
Y60800D01*
D02*
G37*
G36*
X41275Y60550D02*
X40700D01*
Y59950D01*
X41275D01*
Y60550D01*
D02*
G37*
G36*
X40300D02*
X39725D01*
Y59950D01*
X40300D01*
Y60550D01*
D02*
G37*
G36*
X32076Y60300D02*
X31450D01*
Y59674D01*
X31578Y59708D01*
X31772Y59820D01*
X31930Y59978D01*
X32042Y60172D01*
X32076Y60300D01*
D02*
G37*
G36*
X31050D02*
X30424D01*
X30458Y60172D01*
X30570Y59978D01*
X30728Y59820D01*
X30922Y59708D01*
X31050Y59674D01*
Y60300D01*
D02*
G37*
G36*
X53628Y60050D02*
X52950D01*
Y59372D01*
X53097Y59411D01*
X53303Y59530D01*
X53470Y59697D01*
X53589Y59903D01*
X53628Y60050D01*
D02*
G37*
G36*
X52550D02*
X51872D01*
X51911Y59903D01*
X52030Y59697D01*
X52197Y59530D01*
X52403Y59411D01*
X52550Y59372D01*
Y60050D01*
D02*
G37*
G36*
X45950Y59826D02*
Y59200D01*
X46576D01*
X46542Y59328D01*
X46430Y59522D01*
X46272Y59680D01*
X46078Y59792D01*
X45950Y59826D01*
D02*
G37*
G36*
X45550D02*
X45422Y59792D01*
X45228Y59680D01*
X45070Y59522D01*
X44958Y59328D01*
X44924Y59200D01*
X45550D01*
Y59826D01*
D02*
G37*
G36*
X43887Y66539D02*
X43613D01*
X43349Y66468D01*
X43112Y66331D01*
X42919Y66138D01*
X42782Y65901D01*
X42711Y65637D01*
Y65363D01*
X42782Y65099D01*
X42919Y64862D01*
X43112Y64669D01*
X43231Y64600D01*
Y60754D01*
X41409Y58932D01*
X41382Y58931D01*
X41275Y59022D01*
X41275Y59074D01*
Y59550D01*
X40500D01*
X39725D01*
Y58950D01*
X39763D01*
X39783Y58942D01*
X39811Y58791D01*
X39781Y58761D01*
X37479D01*
Y59029D01*
X35521D01*
Y58761D01*
X32180D01*
Y59145D01*
X30772D01*
Y57337D01*
X32180D01*
Y57723D01*
X35521D01*
Y57471D01*
X37479D01*
Y57723D01*
X39871D01*
Y57596D01*
X41129D01*
Y57731D01*
X41461D01*
X41659Y57771D01*
X41828Y57883D01*
X44117Y60172D01*
X44229Y60341D01*
X44269Y60539D01*
Y64600D01*
X44388Y64669D01*
X44581Y64862D01*
X44718Y65099D01*
X44789Y65363D01*
Y65637D01*
X44718Y65901D01*
X44581Y66138D01*
X44388Y66331D01*
X44151Y66468D01*
X43887Y66539D01*
D02*
G37*
G36*
X158047Y59128D02*
Y58450D01*
X158726D01*
X158686Y58597D01*
X158568Y58803D01*
X158400Y58970D01*
X158195Y59089D01*
X158047Y59128D01*
D02*
G37*
G36*
X157647D02*
X157500Y59089D01*
X157295Y58970D01*
X157127Y58803D01*
X157009Y58597D01*
X156969Y58450D01*
X157647D01*
Y59128D01*
D02*
G37*
G36*
X70050Y58850D02*
X69200D01*
Y58200D01*
X70050D01*
Y58850D01*
D02*
G37*
G36*
X68800D02*
X67950D01*
Y58200D01*
X68800D01*
Y58850D01*
D02*
G37*
G36*
X46576Y58800D02*
X45950D01*
Y58174D01*
X46078Y58208D01*
X46272Y58320D01*
X46430Y58478D01*
X46542Y58672D01*
X46576Y58800D01*
D02*
G37*
G36*
X45550D02*
X44924D01*
X44958Y58672D01*
X45070Y58478D01*
X45228Y58320D01*
X45422Y58208D01*
X45550Y58174D01*
Y58800D01*
D02*
G37*
G36*
X20550Y58750D02*
X19700D01*
Y58100D01*
X20550D01*
Y58750D01*
D02*
G37*
G36*
X19300D02*
X18450D01*
Y58100D01*
X19300D01*
Y58750D01*
D02*
G37*
G36*
X117050Y58500D02*
X116200D01*
Y57850D01*
X117050D01*
Y58500D01*
D02*
G37*
G36*
X115800D02*
X114950D01*
Y57850D01*
X115800D01*
Y58500D01*
D02*
G37*
G36*
X158726Y58050D02*
X158047D01*
Y57372D01*
X158195Y57411D01*
X158400Y57530D01*
X158568Y57697D01*
X158686Y57903D01*
X158726Y58050D01*
D02*
G37*
G36*
X157647D02*
X156969D01*
X157009Y57903D01*
X157127Y57697D01*
X157295Y57530D01*
X157500Y57411D01*
X157647Y57372D01*
Y58050D01*
D02*
G37*
G36*
X70050Y57800D02*
X69200D01*
Y57150D01*
X70050D01*
Y57800D01*
D02*
G37*
G36*
X68800D02*
X67950D01*
Y57150D01*
X68800D01*
Y57800D01*
D02*
G37*
G36*
X20550Y57700D02*
X19700D01*
Y57050D01*
X20550D01*
Y57700D01*
D02*
G37*
G36*
X19300D02*
X18450D01*
Y57050D01*
X19300D01*
Y57700D01*
D02*
G37*
G36*
X123200Y57576D02*
Y56950D01*
X123826D01*
X123792Y57078D01*
X123680Y57272D01*
X123522Y57430D01*
X123328Y57542D01*
X123200Y57576D01*
D02*
G37*
G36*
X122800D02*
X122672Y57542D01*
X122478Y57430D01*
X122320Y57272D01*
X122208Y57078D01*
X122174Y56950D01*
X122800D01*
Y57576D01*
D02*
G37*
G36*
X117050Y57450D02*
X116200D01*
Y56800D01*
X117050D01*
Y57450D01*
D02*
G37*
G36*
X115800D02*
X114950D01*
Y56800D01*
X115800D01*
Y57450D01*
D02*
G37*
G36*
X76450Y57326D02*
Y56700D01*
X77076D01*
X77042Y56828D01*
X76930Y57022D01*
X76772Y57180D01*
X76578Y57292D01*
X76450Y57326D01*
D02*
G37*
G36*
X76050D02*
X75922Y57292D01*
X75728Y57180D01*
X75570Y57022D01*
X75458Y56828D01*
X75424Y56700D01*
X76050D01*
Y57326D01*
D02*
G37*
G36*
X142378Y57179D02*
X141450D01*
Y56352D01*
X142378D01*
Y57179D01*
D02*
G37*
G36*
X141050D02*
X140122D01*
Y56352D01*
X141050D01*
Y57179D01*
D02*
G37*
G36*
X130450Y56826D02*
Y56200D01*
X131076D01*
X131042Y56328D01*
X130930Y56522D01*
X130772Y56680D01*
X130578Y56792D01*
X130450Y56826D01*
D02*
G37*
G36*
X130050D02*
X129922Y56792D01*
X129728Y56680D01*
X129570Y56522D01*
X129458Y56328D01*
X129424Y56200D01*
X130050D01*
Y56826D01*
D02*
G37*
G36*
X139078Y56879D02*
X138200D01*
Y56152D01*
X139078D01*
Y56879D01*
D02*
G37*
G36*
X137800D02*
X136922D01*
Y56152D01*
X137800D01*
Y56879D01*
D02*
G37*
G36*
X89378Y56929D02*
X88450D01*
Y56102D01*
X89378D01*
Y56929D01*
D02*
G37*
G36*
X88050D02*
X87122D01*
Y56102D01*
X88050D01*
Y56929D01*
D02*
G37*
G36*
X123826Y56550D02*
X123200D01*
Y55924D01*
X123328Y55958D01*
X123522Y56070D01*
X123680Y56228D01*
X123792Y56422D01*
X123826Y56550D01*
D02*
G37*
G36*
X122800D02*
X122174D01*
X122208Y56422D01*
X122320Y56228D01*
X122478Y56070D01*
X122672Y55958D01*
X122800Y55924D01*
Y56550D01*
D02*
G37*
G36*
X93328Y56629D02*
X92450D01*
Y55902D01*
X93328D01*
Y56629D01*
D02*
G37*
G36*
X92050D02*
X91172D01*
Y55902D01*
X92050D01*
Y56629D01*
D02*
G37*
G36*
X77076Y56300D02*
X76450D01*
Y55674D01*
X76578Y55708D01*
X76772Y55820D01*
X76930Y55978D01*
X77042Y56172D01*
X77076Y56300D01*
D02*
G37*
G36*
X76050D02*
X75424D01*
X75458Y56172D01*
X75570Y55978D01*
X75728Y55820D01*
X75922Y55708D01*
X76050Y55674D01*
Y56300D01*
D02*
G37*
G36*
X47900Y56276D02*
Y55650D01*
X48526D01*
X48492Y55778D01*
X48380Y55972D01*
X48222Y56130D01*
X48028Y56242D01*
X47900Y56276D01*
D02*
G37*
G36*
X47500D02*
X47372Y56242D01*
X47178Y56130D01*
X47020Y55972D01*
X46908Y55778D01*
X46874Y55650D01*
X47500D01*
Y56276D01*
D02*
G37*
G36*
X46328Y56177D02*
X45450D01*
Y55450D01*
X46328D01*
Y56177D01*
D02*
G37*
G36*
X41878Y56277D02*
X40950D01*
Y55450D01*
X41878D01*
Y56277D01*
D02*
G37*
G36*
X45050Y56177D02*
X44172D01*
Y55450D01*
X45050D01*
Y56177D01*
D02*
G37*
G36*
X40550Y56277D02*
X39622D01*
Y55450D01*
X40550D01*
Y56277D01*
D02*
G37*
G36*
X14348Y56328D02*
X13621D01*
Y55450D01*
X14348D01*
Y56328D01*
D02*
G37*
G36*
X131076Y55800D02*
X130450D01*
Y55174D01*
X130578Y55208D01*
X130772Y55320D01*
X130930Y55478D01*
X131042Y55672D01*
X131076Y55800D01*
D02*
G37*
G36*
X130050D02*
X129424D01*
X129458Y55672D01*
X129570Y55478D01*
X129728Y55320D01*
X129922Y55208D01*
X130050Y55174D01*
Y55800D01*
D02*
G37*
G36*
X62147Y55828D02*
X61420D01*
Y54950D01*
X62147D01*
Y55828D01*
D02*
G37*
G36*
X89378Y55702D02*
X88250D01*
X87122D01*
Y54874D01*
X87011Y54835D01*
X86122D01*
X85996Y54961D01*
X85793Y55078D01*
X85567Y55139D01*
X85333D01*
X85107Y55078D01*
X84904Y54961D01*
X84739Y54796D01*
X84622Y54593D01*
X84561Y54367D01*
Y54133D01*
X84622Y53907D01*
X84739Y53704D01*
X84904Y53539D01*
X85107Y53422D01*
X85333Y53361D01*
X85567D01*
X85793Y53422D01*
X85996Y53539D01*
X86122Y53665D01*
X87268D01*
Y53369D01*
X89232D01*
Y53665D01*
X91318D01*
Y53469D01*
X93182D01*
Y53665D01*
X101758D01*
X105915Y49508D01*
Y31799D01*
X100985Y26869D01*
X100852D01*
X100753Y27040D01*
X100520Y27273D01*
X100326Y27385D01*
X100319Y27410D01*
X100331Y27529D01*
X100610Y27690D01*
X100870Y27950D01*
X101055Y28270D01*
X101146Y28610D01*
X99750D01*
X98354D01*
X98445Y28270D01*
X98630Y27950D01*
X98890Y27690D01*
X99169Y27529D01*
X99181Y27410D01*
X99174Y27385D01*
X98980Y27273D01*
X98747Y27040D01*
X98581Y26754D01*
X98496Y26435D01*
Y26105D01*
X98581Y25786D01*
X98747Y25500D01*
X98980Y25267D01*
X99266Y25101D01*
X99585Y25016D01*
X99915D01*
X100234Y25101D01*
X100520Y25267D01*
X100753Y25500D01*
X100868Y25699D01*
X101228D01*
X101452Y25743D01*
X101641Y25870D01*
X106914Y31143D01*
X107041Y31333D01*
X107085Y31557D01*
Y49750D01*
X107041Y49974D01*
X106914Y50164D01*
X102414Y54664D01*
X102224Y54791D01*
X102000Y54835D01*
X93328D01*
Y55502D01*
X92250D01*
X91172D01*
Y54835D01*
X89489D01*
X89378Y54874D01*
Y55702D01*
D02*
G37*
G36*
X81881Y55397D02*
Y54771D01*
X82507D01*
X82473Y54899D01*
X82361Y55093D01*
X82202Y55251D01*
X82009Y55363D01*
X81881Y55397D01*
D02*
G37*
G36*
X81481D02*
X81352Y55363D01*
X81159Y55251D01*
X81000Y55093D01*
X80888Y54899D01*
X80854Y54771D01*
X81481D01*
Y55397D01*
D02*
G37*
G36*
X26200Y55326D02*
Y54700D01*
X26826D01*
X26792Y54828D01*
X26680Y55022D01*
X26522Y55180D01*
X26328Y55292D01*
X26200Y55326D01*
D02*
G37*
G36*
X25800D02*
X25672Y55292D01*
X25478Y55180D01*
X25320Y55022D01*
X25208Y54828D01*
X25174Y54700D01*
X25800D01*
Y55326D01*
D02*
G37*
G36*
X48526Y55250D02*
X47900D01*
Y54624D01*
X48028Y54658D01*
X48222Y54770D01*
X48380Y54928D01*
X48492Y55122D01*
X48526Y55250D01*
D02*
G37*
G36*
X47500D02*
X46874D01*
X46908Y55122D01*
X47020Y54928D01*
X47178Y54770D01*
X47372Y54658D01*
X47500Y54624D01*
Y55250D01*
D02*
G37*
G36*
X110348Y55328D02*
X109621D01*
Y54450D01*
X110348D01*
Y55328D01*
D02*
G37*
G36*
X14348Y55050D02*
X13621D01*
Y54172D01*
X14348D01*
Y55050D01*
D02*
G37*
G36*
X8700Y54576D02*
Y53950D01*
X9326D01*
X9292Y54078D01*
X9180Y54272D01*
X9022Y54430D01*
X8828Y54542D01*
X8700Y54576D01*
D02*
G37*
G36*
X8300D02*
X8172Y54542D01*
X7978Y54430D01*
X7820Y54272D01*
X7708Y54078D01*
X7674Y53950D01*
X8300D01*
Y54576D01*
D02*
G37*
G36*
X82507Y54371D02*
X81881D01*
Y53744D01*
X82009Y53779D01*
X82202Y53891D01*
X82361Y54049D01*
X82473Y54243D01*
X82507Y54371D01*
D02*
G37*
G36*
X81481D02*
X80854D01*
X80888Y54243D01*
X81000Y54049D01*
X81159Y53891D01*
X81352Y53779D01*
X81481Y53744D01*
Y54371D01*
D02*
G37*
G36*
X56450Y54378D02*
Y53700D01*
X57128D01*
X57089Y53847D01*
X56970Y54053D01*
X56803Y54220D01*
X56597Y54339D01*
X56450Y54378D01*
D02*
G37*
G36*
X56050D02*
X55903Y54339D01*
X55697Y54220D01*
X55530Y54053D01*
X55411Y53847D01*
X55372Y53700D01*
X56050D01*
Y54378D01*
D02*
G37*
G36*
X26826Y54300D02*
X26200D01*
Y53674D01*
X26328Y53708D01*
X26522Y53820D01*
X26680Y53978D01*
X26792Y54172D01*
X26826Y54300D01*
D02*
G37*
G36*
X25800D02*
X25174D01*
X25208Y54172D01*
X25320Y53978D01*
X25478Y53820D01*
X25672Y53708D01*
X25800Y53674D01*
Y54300D01*
D02*
G37*
G36*
X62147Y54550D02*
X61420D01*
Y53672D01*
X62147D01*
Y54550D01*
D02*
G37*
G36*
X31876Y54174D02*
Y53548D01*
X32503D01*
X32468Y53676D01*
X32356Y53870D01*
X32198Y54028D01*
X32004Y54140D01*
X31876Y54174D01*
D02*
G37*
G36*
X31476D02*
X31348Y54140D01*
X31154Y54028D01*
X30996Y53870D01*
X30884Y53676D01*
X30850Y53548D01*
X31476D01*
Y54174D01*
D02*
G37*
G36*
X41878Y55050D02*
X40750D01*
X39622D01*
Y54223D01*
X39511Y54184D01*
X37407D01*
X37183Y54139D01*
X36993Y54012D01*
X36370Y53388D01*
X36367Y53389D01*
X36133D01*
X35907Y53328D01*
X35704Y53211D01*
X35539Y53046D01*
X35422Y52843D01*
X35361Y52617D01*
Y52383D01*
X35422Y52157D01*
X35539Y51954D01*
X35704Y51789D01*
X35907Y51672D01*
X36133Y51611D01*
X36367D01*
X36593Y51672D01*
X36796Y51789D01*
X36961Y51954D01*
X37078Y52157D01*
X37139Y52383D01*
Y52503D01*
X37650Y53013D01*
X39768D01*
Y52717D01*
X41732D01*
Y53113D01*
X44318D01*
Y53017D01*
X46182D01*
Y53213D01*
X49834D01*
X52665Y50383D01*
Y28242D01*
X51078Y26655D01*
X47695D01*
X47669Y26754D01*
X47503Y27040D01*
X47270Y27273D01*
X47076Y27385D01*
X47069Y27410D01*
X47081Y27529D01*
X47360Y27690D01*
X47620Y27950D01*
X47805Y28270D01*
X47896Y28610D01*
X46500D01*
X45104D01*
X45195Y28270D01*
X45380Y27950D01*
X45640Y27690D01*
X45919Y27529D01*
X45931Y27410D01*
X45924Y27385D01*
X45730Y27273D01*
X45497Y27040D01*
X45331Y26754D01*
X45246Y26435D01*
Y26105D01*
X45331Y25786D01*
X45497Y25500D01*
X45730Y25267D01*
X46016Y25101D01*
X46335Y25016D01*
X46665D01*
X46984Y25101D01*
X47270Y25267D01*
X47490Y25487D01*
X47500Y25485D01*
X51320D01*
X51544Y25529D01*
X51734Y25656D01*
X53664Y27586D01*
X53791Y27776D01*
X53835Y28000D01*
Y50625D01*
X53791Y50849D01*
X53664Y51039D01*
X50491Y54212D01*
X50301Y54339D01*
X50077Y54384D01*
X46328D01*
Y55050D01*
X45250D01*
X44172D01*
Y54323D01*
X44061Y54284D01*
X41878D01*
Y55050D01*
D02*
G37*
G36*
X110348Y54050D02*
X109621D01*
Y53172D01*
X110348D01*
Y54050D01*
D02*
G37*
G36*
X9326Y53550D02*
X8700D01*
Y52924D01*
X8828Y52958D01*
X9022Y53070D01*
X9180Y53228D01*
X9292Y53422D01*
X9326Y53550D01*
D02*
G37*
G36*
X8300D02*
X7674D01*
X7708Y53422D01*
X7820Y53228D01*
X7978Y53070D01*
X8172Y52958D01*
X8300Y52924D01*
Y53550D01*
D02*
G37*
G36*
X57128Y53300D02*
X56450D01*
Y52622D01*
X56597Y52661D01*
X56803Y52780D01*
X56970Y52947D01*
X57089Y53153D01*
X57128Y53300D01*
D02*
G37*
G36*
X56050D02*
X55372D01*
X55411Y53153D01*
X55530Y52947D01*
X55697Y52780D01*
X55903Y52661D01*
X56050Y52622D01*
Y53300D01*
D02*
G37*
G36*
X32503Y53148D02*
X31876D01*
Y52521D01*
X32004Y52556D01*
X32198Y52668D01*
X32356Y52826D01*
X32468Y53020D01*
X32503Y53148D01*
D02*
G37*
G36*
X31476D02*
X30850D01*
X30884Y53020D01*
X30996Y52826D01*
X31154Y52668D01*
X31348Y52556D01*
X31476Y52521D01*
Y53148D01*
D02*
G37*
G36*
X21700Y49576D02*
Y48950D01*
X22326D01*
X22292Y49078D01*
X22180Y49272D01*
X22022Y49430D01*
X21828Y49542D01*
X21700Y49576D01*
D02*
G37*
G36*
X21300D02*
X21172Y49542D01*
X20978Y49430D01*
X20820Y49272D01*
X20708Y49078D01*
X20674Y48950D01*
X21300D01*
Y49576D01*
D02*
G37*
G36*
X127691Y49176D02*
Y48550D01*
X128318D01*
X128283Y48678D01*
X128171Y48872D01*
X128013Y49030D01*
X127819Y49142D01*
X127691Y49176D01*
D02*
G37*
G36*
X127291D02*
X127163Y49142D01*
X126969Y49030D01*
X126811Y48872D01*
X126699Y48678D01*
X126665Y48550D01*
X127291D01*
Y49176D01*
D02*
G37*
G36*
X73846Y48661D02*
Y48035D01*
X74473D01*
X74438Y48163D01*
X74326Y48356D01*
X74168Y48515D01*
X73974Y48627D01*
X73846Y48661D01*
D02*
G37*
G36*
X73446D02*
X73318Y48627D01*
X73124Y48515D01*
X72966Y48356D01*
X72854Y48163D01*
X72820Y48035D01*
X73446D01*
Y48661D01*
D02*
G37*
G36*
X22326Y48550D02*
X21700D01*
Y47924D01*
X21828Y47958D01*
X22022Y48070D01*
X22180Y48228D01*
X22292Y48422D01*
X22326Y48550D01*
D02*
G37*
G36*
X21300D02*
X20674D01*
X20708Y48422D01*
X20820Y48228D01*
X20978Y48070D01*
X21172Y47958D01*
X21300Y47924D01*
Y48550D01*
D02*
G37*
G36*
X128318Y48150D02*
X127691D01*
Y47524D01*
X127819Y47558D01*
X128013Y47670D01*
X128171Y47828D01*
X128283Y48022D01*
X128318Y48150D01*
D02*
G37*
G36*
X127291D02*
X126665D01*
X126699Y48022D01*
X126811Y47828D01*
X126969Y47670D01*
X127163Y47558D01*
X127291Y47524D01*
Y48150D01*
D02*
G37*
G36*
X74473Y47634D02*
X73846D01*
Y47008D01*
X73974Y47042D01*
X74168Y47154D01*
X74326Y47313D01*
X74438Y47506D01*
X74473Y47634D01*
D02*
G37*
G36*
X73446D02*
X72820D01*
X72854Y47506D01*
X72966Y47313D01*
X73124Y47154D01*
X73318Y47042D01*
X73446Y47008D01*
Y47634D01*
D02*
G37*
G36*
X153002Y45624D02*
Y44998D01*
X153629D01*
X153594Y45126D01*
X153482Y45319D01*
X153324Y45478D01*
X153130Y45590D01*
X153002Y45624D01*
D02*
G37*
G36*
X152602D02*
X152474Y45590D01*
X152280Y45478D01*
X152122Y45319D01*
X152010Y45126D01*
X151976Y44998D01*
X152602D01*
Y45624D01*
D02*
G37*
G36*
X153629Y44598D02*
X153002D01*
Y43971D01*
X153130Y44006D01*
X153324Y44117D01*
X153482Y44276D01*
X153594Y44469D01*
X153629Y44598D01*
D02*
G37*
G36*
X152602D02*
X151976D01*
X152010Y44469D01*
X152122Y44276D01*
X152280Y44117D01*
X152474Y44006D01*
X152602Y43971D01*
Y44598D01*
D02*
G37*
G36*
X47450Y44326D02*
Y43700D01*
X48076D01*
X48042Y43828D01*
X47930Y44022D01*
X47772Y44180D01*
X47578Y44292D01*
X47450Y44326D01*
D02*
G37*
G36*
X47050D02*
X46922Y44292D01*
X46728Y44180D01*
X46570Y44022D01*
X46458Y43828D01*
X46424Y43700D01*
X47050D01*
Y44326D01*
D02*
G37*
G36*
X99566Y43429D02*
Y42803D01*
X100193D01*
X100158Y42931D01*
X100046Y43124D01*
X99888Y43283D01*
X99694Y43395D01*
X99566Y43429D01*
D02*
G37*
G36*
X99166D02*
X99038Y43395D01*
X98844Y43283D01*
X98686Y43124D01*
X98574Y42931D01*
X98540Y42803D01*
X99166D01*
Y43429D01*
D02*
G37*
G36*
X48076Y43300D02*
X47450D01*
Y42674D01*
X47578Y42708D01*
X47772Y42820D01*
X47930Y42978D01*
X48042Y43172D01*
X48076Y43300D01*
D02*
G37*
G36*
X47050D02*
X46424D01*
X46458Y43172D01*
X46570Y42978D01*
X46728Y42820D01*
X46922Y42708D01*
X47050Y42674D01*
Y43300D01*
D02*
G37*
G36*
X100193Y42403D02*
X99566D01*
Y41776D01*
X99694Y41810D01*
X99888Y41922D01*
X100046Y42081D01*
X100158Y42274D01*
X100193Y42403D01*
D02*
G37*
G36*
X99166D02*
X98540D01*
X98574Y42274D01*
X98686Y42081D01*
X98844Y41922D01*
X99038Y41810D01*
X99166Y41776D01*
Y42403D01*
D02*
G37*
G36*
X79954Y60154D02*
X78546D01*
Y58346D01*
X78731D01*
Y54361D01*
X78771Y54162D01*
X78883Y53994D01*
X81994Y50883D01*
X82162Y50771D01*
X82361Y50731D01*
X101157D01*
X104500Y47388D01*
Y35484D01*
X101185Y32169D01*
X100704D01*
X100520Y32353D01*
X100234Y32519D01*
X100101Y32554D01*
Y32686D01*
X100234Y32721D01*
X100520Y32887D01*
X100753Y33120D01*
X100919Y33406D01*
X100990Y33671D01*
X101440D01*
X101639Y33711D01*
X101807Y33823D01*
X104117Y36133D01*
X104229Y36301D01*
X104269Y36500D01*
Y45922D01*
X104229Y46121D01*
X104117Y46289D01*
X100975Y49431D01*
X100807Y49543D01*
X100608Y49583D01*
X76011D01*
X70477Y55117D01*
X70309Y55229D01*
X70110Y55269D01*
X64580D01*
Y55682D01*
X64317D01*
Y57296D01*
X64702D01*
Y58704D01*
X62894D01*
Y58519D01*
X59650D01*
X59581Y58638D01*
X59388Y58831D01*
X59151Y58968D01*
X58887Y59039D01*
X58613D01*
X58349Y58968D01*
X58112Y58831D01*
X57919Y58638D01*
X57782Y58401D01*
X57711Y58137D01*
Y57863D01*
X57782Y57599D01*
X57919Y57362D01*
X58112Y57169D01*
X58349Y57032D01*
X58613Y56961D01*
X58887D01*
X59151Y57032D01*
X59388Y57169D01*
X59581Y57362D01*
X59650Y57481D01*
X62894D01*
Y57296D01*
X63279D01*
Y55953D01*
X63274Y55828D01*
X62547D01*
Y54750D01*
Y53672D01*
X63274D01*
Y53818D01*
X64580D01*
Y54231D01*
X69895D01*
X75429Y48697D01*
X75597Y48585D01*
X75796Y48545D01*
X100393D01*
X103231Y45707D01*
Y36715D01*
X101225Y34709D01*
X100704D01*
X100520Y34893D01*
X100234Y35059D01*
X100101Y35094D01*
Y35226D01*
X100234Y35261D01*
X100520Y35427D01*
X100753Y35660D01*
X100919Y35946D01*
X101004Y36265D01*
Y36595D01*
X100919Y36914D01*
X100753Y37200D01*
X100520Y37433D01*
X100234Y37599D01*
X99915Y37684D01*
X99585D01*
X99266Y37599D01*
X98980Y37433D01*
X98747Y37200D01*
X98581Y36914D01*
X98496Y36595D01*
Y36265D01*
X98581Y35946D01*
X98747Y35660D01*
X98980Y35427D01*
X99266Y35261D01*
X99399Y35226D01*
Y35094D01*
X99266Y35059D01*
X98980Y34893D01*
X98747Y34660D01*
X98581Y34374D01*
X98496Y34055D01*
Y33725D01*
X98581Y33406D01*
X98747Y33120D01*
X98980Y32887D01*
X99266Y32721D01*
X99399Y32686D01*
Y32554D01*
X99266Y32519D01*
X98980Y32353D01*
X98747Y32120D01*
X98581Y31834D01*
X98496Y31515D01*
Y31185D01*
X98581Y30866D01*
X98747Y30580D01*
X98980Y30347D01*
X99174Y30235D01*
X99181Y30210D01*
X99169Y30091D01*
X98890Y29930D01*
X98630Y29670D01*
X98445Y29350D01*
X98354Y29010D01*
X99750D01*
X101146D01*
X101055Y29350D01*
X100870Y29670D01*
X100610Y29930D01*
X100331Y30091D01*
X100319Y30210D01*
X100326Y30235D01*
X100520Y30347D01*
X100753Y30580D01*
X100919Y30866D01*
X100990Y31131D01*
X101400D01*
X101599Y31171D01*
X101767Y31283D01*
X105386Y34902D01*
X105498Y35070D01*
X105538Y35269D01*
Y47603D01*
X105498Y47802D01*
X105386Y47970D01*
X101739Y51617D01*
X101571Y51729D01*
X101372Y51769D01*
X82576D01*
X79769Y54576D01*
Y58346D01*
X79954D01*
Y60154D01*
D02*
G37*
G36*
X126354Y59904D02*
X124946D01*
Y58096D01*
X125131D01*
Y57698D01*
X125171Y57500D01*
X125283Y57332D01*
X130732Y51883D01*
X130900Y51771D01*
X131099Y51731D01*
X155519D01*
X157481Y49769D01*
Y34105D01*
X155245Y31869D01*
X154148D01*
X154003Y32120D01*
X153770Y32353D01*
X153484Y32519D01*
X153351Y32554D01*
Y32686D01*
X153484Y32721D01*
X153770Y32887D01*
X154003Y33120D01*
X154148Y33371D01*
X155140D01*
X155339Y33411D01*
X155507Y33523D01*
X157117Y35133D01*
X157229Y35301D01*
X157269Y35500D01*
Y49250D01*
X157229Y49449D01*
X157117Y49617D01*
X156117Y50617D01*
X155949Y50729D01*
X155750Y50769D01*
X130199D01*
X126351Y54617D01*
X126183Y54729D01*
X125984Y54769D01*
X112781D01*
Y55182D01*
X112519D01*
Y56946D01*
X112904D01*
Y58354D01*
X111096D01*
Y58169D01*
X108150D01*
X108081Y58288D01*
X107888Y58481D01*
X107651Y58618D01*
X107387Y58689D01*
X107113D01*
X106849Y58618D01*
X106612Y58481D01*
X106419Y58288D01*
X106282Y58051D01*
X106211Y57787D01*
Y57513D01*
X106282Y57249D01*
X106419Y57012D01*
X106612Y56819D01*
X106849Y56682D01*
X107113Y56611D01*
X107387D01*
X107651Y56682D01*
X107888Y56819D01*
X108081Y57012D01*
X108150Y57131D01*
X111096D01*
Y56946D01*
X111481D01*
Y55453D01*
X111476Y55328D01*
X110748D01*
Y54250D01*
Y53172D01*
X111476D01*
Y53318D01*
X112781D01*
Y53731D01*
X125769D01*
X129617Y49883D01*
X129785Y49771D01*
X129984Y49731D01*
X155535D01*
X156231Y49035D01*
Y35715D01*
X154925Y34409D01*
X154148D01*
X154003Y34660D01*
X153770Y34893D01*
X153484Y35059D01*
X153351Y35094D01*
Y35226D01*
X153484Y35261D01*
X153770Y35427D01*
X154003Y35660D01*
X154169Y35946D01*
X154254Y36265D01*
Y36595D01*
X154169Y36914D01*
X154003Y37200D01*
X153770Y37433D01*
X153484Y37599D01*
X153165Y37684D01*
X152835D01*
X152516Y37599D01*
X152230Y37433D01*
X151997Y37200D01*
X151831Y36914D01*
X151746Y36595D01*
Y36265D01*
X151831Y35946D01*
X151997Y35660D01*
X152230Y35427D01*
X152516Y35261D01*
X152649Y35226D01*
Y35094D01*
X152516Y35059D01*
X152230Y34893D01*
X151997Y34660D01*
X151831Y34374D01*
X151746Y34055D01*
Y33725D01*
X151831Y33406D01*
X151997Y33120D01*
X152230Y32887D01*
X152516Y32721D01*
X152649Y32686D01*
Y32554D01*
X152516Y32519D01*
X152230Y32353D01*
X151997Y32120D01*
X151831Y31834D01*
X151746Y31515D01*
Y31185D01*
X151831Y30866D01*
X151997Y30580D01*
X152230Y30347D01*
X152424Y30235D01*
X152431Y30210D01*
X152419Y30091D01*
X152140Y29930D01*
X151880Y29670D01*
X151695Y29350D01*
X151604Y29010D01*
X153000D01*
Y28610D01*
X151604D01*
X151695Y28270D01*
X151880Y27950D01*
X152140Y27690D01*
X152419Y27529D01*
X152431Y27410D01*
X152424Y27385D01*
X152230Y27273D01*
X151997Y27040D01*
X151831Y26754D01*
X151746Y26435D01*
Y26105D01*
X151831Y25786D01*
X151997Y25500D01*
X152230Y25267D01*
X152516Y25101D01*
X152835Y25016D01*
X153165D01*
X153484Y25101D01*
X153770Y25267D01*
X154003Y25500D01*
X154169Y25786D01*
X154254Y26105D01*
Y26435D01*
X154199Y26641D01*
X160164Y32606D01*
X160291Y32796D01*
X160335Y33020D01*
Y50784D01*
X160291Y51007D01*
X160164Y51197D01*
X156447Y54914D01*
X156257Y55041D01*
X156034Y55085D01*
X142489D01*
X142378Y55124D01*
Y55952D01*
X141250D01*
X140122D01*
Y55124D01*
X140011Y55085D01*
X139078D01*
Y55752D01*
X138000D01*
X136922D01*
Y55085D01*
X135922D01*
X135796Y55211D01*
X135593Y55328D01*
X135367Y55389D01*
X135133D01*
X134907Y55328D01*
X134704Y55211D01*
X134539Y55046D01*
X134422Y54843D01*
X134361Y54617D01*
Y54383D01*
X134422Y54157D01*
X134539Y53954D01*
X134704Y53789D01*
X134907Y53672D01*
X135133Y53611D01*
X135367D01*
X135593Y53672D01*
X135796Y53789D01*
X135922Y53915D01*
X137068D01*
Y53719D01*
X138932D01*
Y53915D01*
X140268D01*
Y53619D01*
X142232D01*
Y53915D01*
X155791D01*
X159165Y50541D01*
Y33262D01*
X154526Y28624D01*
X154400Y28677D01*
Y28994D01*
X154305Y29350D01*
X154120Y29670D01*
X153860Y29930D01*
X153581Y30091D01*
X153569Y30210D01*
X153576Y30235D01*
X153770Y30347D01*
X154003Y30580D01*
X154148Y30831D01*
X155460D01*
X155659Y30871D01*
X155827Y30983D01*
X158367Y33523D01*
X158479Y33691D01*
X158519Y33890D01*
Y49984D01*
X158479Y50183D01*
X158367Y50351D01*
X156101Y52617D01*
X155933Y52729D01*
X155734Y52769D01*
X131313D01*
X126169Y57913D01*
Y58096D01*
X126354D01*
Y59904D01*
D02*
G37*
G36*
X30080Y59145D02*
X28672D01*
Y57337D01*
X28731D01*
Y52750D01*
X28771Y52551D01*
X28883Y52383D01*
X31633Y49633D01*
X31801Y49521D01*
X32000Y49481D01*
X49763D01*
X51231Y48013D01*
Y31669D01*
X47713D01*
X47669Y31834D01*
X47503Y32120D01*
X47270Y32353D01*
X46984Y32519D01*
X46851Y32554D01*
Y32686D01*
X46984Y32721D01*
X47270Y32887D01*
X47503Y33120D01*
X47533Y33171D01*
X50201D01*
X50400Y33211D01*
X50568Y33323D01*
X50867Y33622D01*
X50979Y33790D01*
X51019Y33989D01*
Y47108D01*
X50979Y47307D01*
X50867Y47475D01*
X49725Y48617D01*
X49557Y48729D01*
X49358Y48769D01*
X27075D01*
X20227Y55617D01*
X20059Y55729D01*
X19860Y55769D01*
X16781D01*
Y56182D01*
X16519D01*
Y57196D01*
X16904D01*
Y58604D01*
X15096D01*
Y58419D01*
X13979D01*
X13919Y58431D01*
X11893D01*
X11831Y58538D01*
X11638Y58731D01*
X11401Y58868D01*
X11137Y58939D01*
X10863D01*
X10599Y58868D01*
X10362Y58731D01*
X10169Y58538D01*
X10032Y58301D01*
X9961Y58037D01*
Y57763D01*
X10032Y57499D01*
X10169Y57262D01*
X10362Y57069D01*
X10599Y56932D01*
X10863Y56861D01*
X11137D01*
X11401Y56932D01*
X11638Y57069D01*
X11831Y57262D01*
X11907Y57393D01*
X13871D01*
X13931Y57381D01*
X15096D01*
Y57196D01*
X15481D01*
Y56453D01*
X15476Y56328D01*
X14748D01*
Y55250D01*
Y54172D01*
X15476D01*
Y54318D01*
X16781D01*
Y54731D01*
X19645D01*
X26493Y47883D01*
X26661Y47771D01*
X26860Y47731D01*
X49143D01*
X49981Y46893D01*
Y34209D01*
X47713D01*
X47669Y34374D01*
X47503Y34660D01*
X47270Y34893D01*
X46984Y35059D01*
X46851Y35094D01*
Y35226D01*
X46984Y35261D01*
X47270Y35427D01*
X47503Y35660D01*
X47669Y35946D01*
X47754Y36265D01*
Y36595D01*
X47669Y36914D01*
X47503Y37200D01*
X47270Y37433D01*
X46984Y37599D01*
X46665Y37684D01*
X46335D01*
X46016Y37599D01*
X45730Y37433D01*
X45497Y37200D01*
X45331Y36914D01*
X45246Y36595D01*
Y36265D01*
X45331Y35946D01*
X45497Y35660D01*
X45730Y35427D01*
X46016Y35261D01*
X46149Y35226D01*
Y35094D01*
X46016Y35059D01*
X45730Y34893D01*
X45497Y34660D01*
X45331Y34374D01*
X45246Y34055D01*
Y33725D01*
X45331Y33406D01*
X45497Y33120D01*
X45730Y32887D01*
X46016Y32721D01*
X46149Y32686D01*
Y32554D01*
X46016Y32519D01*
X45730Y32353D01*
X45497Y32120D01*
X45331Y31834D01*
X45246Y31515D01*
Y31185D01*
X45331Y30866D01*
X45497Y30580D01*
X45730Y30347D01*
X45924Y30235D01*
X45931Y30210D01*
X45919Y30091D01*
X45640Y29930D01*
X45380Y29670D01*
X45195Y29350D01*
X45104Y29010D01*
X46500D01*
X47896D01*
X47805Y29350D01*
X47620Y29670D01*
X47360Y29930D01*
X47081Y30091D01*
X47069Y30210D01*
X47076Y30235D01*
X47270Y30347D01*
X47503Y30580D01*
X47533Y30631D01*
X51451D01*
X51650Y30671D01*
X51818Y30783D01*
X52117Y31082D01*
X52229Y31250D01*
X52269Y31449D01*
Y48228D01*
X52229Y48427D01*
X52117Y48595D01*
X50345Y50367D01*
X50177Y50479D01*
X49978Y50519D01*
X32215D01*
X29769Y52965D01*
Y57337D01*
X30080D01*
Y59145D01*
D02*
G37*
G36*
X158950Y24628D02*
Y23950D01*
X159628D01*
X159589Y24097D01*
X159470Y24303D01*
X159303Y24470D01*
X159097Y24589D01*
X158950Y24628D01*
D02*
G37*
G36*
X158550D02*
X158403Y24589D01*
X158197Y24470D01*
X158030Y24303D01*
X157911Y24097D01*
X157872Y23950D01*
X158550D01*
Y24628D01*
D02*
G37*
G36*
X105200D02*
Y23950D01*
X105878D01*
X105839Y24097D01*
X105720Y24303D01*
X105553Y24470D01*
X105347Y24589D01*
X105200Y24628D01*
D02*
G37*
G36*
X104800D02*
X104653Y24589D01*
X104447Y24470D01*
X104280Y24303D01*
X104161Y24097D01*
X104122Y23950D01*
X104800D01*
Y24628D01*
D02*
G37*
G36*
X52450D02*
Y23950D01*
X53128D01*
X53089Y24097D01*
X52970Y24303D01*
X52803Y24470D01*
X52597Y24589D01*
X52450Y24628D01*
D02*
G37*
G36*
X52050D02*
X51903Y24589D01*
X51697Y24470D01*
X51530Y24303D01*
X51411Y24097D01*
X51372Y23950D01*
X52050D01*
Y24628D01*
D02*
G37*
G36*
X152488Y24592D02*
Y23914D01*
X153166D01*
X153127Y24061D01*
X153008Y24267D01*
X152841Y24434D01*
X152636Y24553D01*
X152488Y24592D01*
D02*
G37*
G36*
X152088D02*
X151941Y24553D01*
X151736Y24434D01*
X151568Y24267D01*
X151450Y24061D01*
X151410Y23914D01*
X152088D01*
Y24592D01*
D02*
G37*
G36*
X98650Y24578D02*
Y23900D01*
X99328D01*
X99289Y24047D01*
X99170Y24253D01*
X99003Y24420D01*
X98797Y24539D01*
X98650Y24578D01*
D02*
G37*
G36*
X98250D02*
X98103Y24539D01*
X97897Y24420D01*
X97730Y24253D01*
X97611Y24047D01*
X97572Y23900D01*
X98250D01*
Y24578D01*
D02*
G37*
G36*
X45400D02*
Y23900D01*
X46078D01*
X46039Y24047D01*
X45920Y24253D01*
X45753Y24420D01*
X45547Y24539D01*
X45400Y24578D01*
D02*
G37*
G36*
X45000D02*
X44853Y24539D01*
X44647Y24420D01*
X44480Y24253D01*
X44361Y24047D01*
X44322Y23900D01*
X45000D01*
Y24578D01*
D02*
G37*
G36*
X159628Y23550D02*
X158950D01*
Y22872D01*
X159097Y22911D01*
X159303Y23030D01*
X159470Y23197D01*
X159589Y23403D01*
X159628Y23550D01*
D02*
G37*
G36*
X158550D02*
X157872D01*
X157911Y23403D01*
X158030Y23197D01*
X158197Y23030D01*
X158403Y22911D01*
X158550Y22872D01*
Y23550D01*
D02*
G37*
G36*
X53128D02*
X52450D01*
Y22872D01*
X52597Y22911D01*
X52803Y23030D01*
X52970Y23197D01*
X53089Y23403D01*
X53128Y23550D01*
D02*
G37*
G36*
X52050D02*
X51372D01*
X51411Y23403D01*
X51530Y23197D01*
X51697Y23030D01*
X51903Y22911D01*
X52050Y22872D01*
Y23550D01*
D02*
G37*
G36*
X105878D02*
X105200D01*
Y22872D01*
X105347Y22911D01*
X105553Y23030D01*
X105720Y23197D01*
X105839Y23403D01*
X105878Y23550D01*
D02*
G37*
G36*
X104800D02*
X104122D01*
X104161Y23403D01*
X104280Y23197D01*
X104447Y23030D01*
X104653Y22911D01*
X104800Y22872D01*
Y23550D01*
D02*
G37*
G36*
X153166Y23514D02*
X152488D01*
Y22836D01*
X152636Y22875D01*
X152841Y22994D01*
X153008Y23161D01*
X153127Y23367D01*
X153166Y23514D01*
D02*
G37*
G36*
X152088D02*
X151410D01*
X151450Y23367D01*
X151568Y23161D01*
X151736Y22994D01*
X151941Y22875D01*
X152088Y22836D01*
Y23514D01*
D02*
G37*
G36*
X46078Y23500D02*
X45400D01*
Y22822D01*
X45547Y22861D01*
X45753Y22980D01*
X45920Y23147D01*
X46039Y23353D01*
X46078Y23500D01*
D02*
G37*
G36*
X45000D02*
X44322D01*
X44361Y23353D01*
X44480Y23147D01*
X44647Y22980D01*
X44853Y22861D01*
X45000Y22822D01*
Y23500D01*
D02*
G37*
G36*
X99328D02*
X98650D01*
Y22822D01*
X98797Y22861D01*
X99003Y22980D01*
X99170Y23147D01*
X99289Y23353D01*
X99328Y23500D01*
D02*
G37*
G36*
X98250D02*
X97572D01*
X97611Y23353D01*
X97730Y23147D01*
X97897Y22980D01*
X98103Y22861D01*
X98250Y22822D01*
Y23500D01*
D02*
G37*
%LPD*%
D16*
X133000Y59000D02*
D03*
Y60850D02*
D03*
X85500Y61000D02*
D03*
Y59150D02*
D03*
X36500Y60100D02*
D03*
Y58250D02*
D03*
D17*
X134750Y73150D02*
D03*
Y75250D02*
D03*
X36000Y74250D02*
D03*
Y72150D02*
D03*
X116000Y59750D02*
D03*
Y57650D02*
D03*
X112000D02*
D03*
Y59750D02*
D03*
X63798Y60100D02*
D03*
Y58000D02*
D03*
X69000Y60100D02*
D03*
Y58000D02*
D03*
X85750Y74500D02*
D03*
Y72400D02*
D03*
X19500Y60000D02*
D03*
Y57900D02*
D03*
X16000Y60000D02*
D03*
Y57900D02*
D03*
D18*
X137750Y75250D02*
D03*
X139850D02*
D03*
X38750Y74250D02*
D03*
X40850D02*
D03*
X88500Y74500D02*
D03*
X90600D02*
D03*
D19*
X79250Y59250D02*
D03*
X81350D02*
D03*
X125650Y59000D02*
D03*
X127750D02*
D03*
X29376Y58241D02*
D03*
X31476D02*
D03*
D20*
X91000Y59150D02*
D03*
Y60650D02*
D03*
X89500Y66500D02*
D03*
Y65000D02*
D03*
X135625Y65750D02*
D03*
Y64250D02*
D03*
X110000Y65750D02*
D03*
Y64250D02*
D03*
X137000Y59000D02*
D03*
Y60500D02*
D03*
X64250Y66500D02*
D03*
Y65000D02*
D03*
X10750Y65500D02*
D03*
Y64000D02*
D03*
X40500Y59750D02*
D03*
Y58250D02*
D03*
X39000Y63975D02*
D03*
Y65475D02*
D03*
D21*
X25100Y70702D02*
D03*
Y69250D02*
D03*
X122250Y71202D02*
D03*
Y69750D02*
D03*
X138000Y54500D02*
D03*
Y55952D02*
D03*
X74850Y71702D02*
D03*
Y70250D02*
D03*
X92250Y55702D02*
D03*
Y54250D02*
D03*
X45250Y53798D02*
D03*
Y55250D02*
D03*
D22*
X84250Y66450D02*
D03*
Y64450D02*
D03*
X131750Y65750D02*
D03*
Y63750D02*
D03*
X114750Y65750D02*
D03*
Y63750D02*
D03*
X69000Y66500D02*
D03*
Y64500D02*
D03*
X18000Y65500D02*
D03*
Y63500D02*
D03*
X34500Y63475D02*
D03*
Y65475D02*
D03*
D23*
X28750Y71062D02*
D03*
Y69250D02*
D03*
X125650Y71562D02*
D03*
Y69750D02*
D03*
X78500Y72062D02*
D03*
Y70250D02*
D03*
D24*
X40750Y55250D02*
D03*
Y53598D02*
D03*
X141250Y54500D02*
D03*
Y56152D02*
D03*
X88250Y55902D02*
D03*
Y54250D02*
D03*
D25*
X29400Y63525D02*
D03*
Y64175D02*
D03*
Y64825D02*
D03*
Y65475D02*
D03*
X25100D02*
D03*
Y64825D02*
D03*
Y64175D02*
D03*
Y63525D02*
D03*
X121350Y63775D02*
D03*
Y64425D02*
D03*
Y65075D02*
D03*
Y65725D02*
D03*
X125650D02*
D03*
Y65075D02*
D03*
Y64425D02*
D03*
Y63775D02*
D03*
X74850Y64500D02*
D03*
Y65150D02*
D03*
Y65800D02*
D03*
Y66450D02*
D03*
X79150D02*
D03*
Y65800D02*
D03*
Y65150D02*
D03*
Y64500D02*
D03*
D26*
X121350Y59750D02*
D03*
X119500D02*
D03*
X74850Y60100D02*
D03*
X73000D02*
D03*
X25100Y60000D02*
D03*
X23250D02*
D03*
D27*
X110548Y54250D02*
D03*
X112000D02*
D03*
X62347Y54750D02*
D03*
X63798D02*
D03*
X14548Y55250D02*
D03*
X16000D02*
D03*
D37*
X96000Y63250D02*
D03*
X43750Y65500D02*
D03*
X11000Y57900D02*
D03*
X107250Y57650D02*
D03*
X64750Y71750D02*
D03*
X59750D02*
D03*
X58750Y58000D02*
D03*
X142500Y63750D02*
D03*
D41*
X40850Y53798D02*
X40950Y53698D01*
X36309Y52500D02*
X37407Y53598D01*
X40650D01*
X36250Y52500D02*
X36309D01*
X40650Y53598D02*
X40850Y53798D01*
X159750Y33020D02*
Y50784D01*
X141250Y54500D02*
X156034D01*
X159750Y50784D01*
X153000Y26270D02*
X159750Y33020D01*
X101228Y26284D02*
X106500Y31557D01*
X102000Y54250D02*
X106500Y49750D01*
Y31557D02*
Y49750D01*
X99750Y26270D02*
X99764Y26284D01*
X101228D01*
X51320Y26070D02*
X53250Y28000D01*
X50077Y53798D02*
X53250Y50625D01*
Y28000D02*
Y50625D01*
X138000Y54500D02*
X141250D01*
X135250D02*
X138000D01*
X88250Y54250D02*
X92250D01*
X85450D02*
X88250D01*
X92250D02*
X102000D01*
X47500Y26070D02*
X51320D01*
X45250Y53798D02*
X50077D01*
X40950Y53698D02*
X45150D01*
X40850D02*
X40950D01*
X40750Y53598D02*
X40850Y53698D01*
X45150D02*
X45250Y53798D01*
X40850Y74250D02*
X43750D01*
X43750Y74250D01*
X40850Y74250D02*
X40850Y74250D01*
X139850Y75250D02*
X142250D01*
X139850D02*
X139850Y75250D01*
X72250Y70250D02*
X74850D01*
X78474D01*
X90600Y74500D02*
X93250D01*
X64750Y71750D02*
Y79750D01*
X59670Y79750D02*
X59710Y79710D01*
Y71790D02*
X59750Y71750D01*
D42*
X131099Y52250D02*
X155734D01*
X158000Y49984D01*
X125650Y57698D02*
X131099Y52250D01*
X125650Y57698D02*
Y59000D01*
X79250Y54361D02*
X82361Y51250D01*
X101372D01*
X79250Y54361D02*
Y59150D01*
X155140Y33890D02*
X156750Y35500D01*
Y49250D01*
X155750Y50250D02*
X156750Y49250D01*
X112000Y54250D02*
X125984D01*
X129984Y50250D01*
X155750D01*
X158000Y33890D02*
Y49984D01*
X101440Y34190D02*
X103750Y36500D01*
X100608Y49064D02*
X103750Y45922D01*
Y36500D02*
Y45922D01*
X101400Y31650D02*
X105019Y35269D01*
X101372Y51250D02*
X105019Y47603D01*
Y35269D02*
Y47603D01*
X49978Y50000D02*
X51750Y48228D01*
X47500Y31150D02*
X51451D01*
X51750Y31449D01*
Y48228D01*
X155460Y31350D02*
X158000Y33890D01*
X153000D02*
X155140D01*
X153000Y31350D02*
X155460D01*
X99500Y34190D02*
X101440D01*
X99500Y31650D02*
X101400D01*
X75796Y49064D02*
X100608D01*
X79200Y59200D02*
X79250Y59150D01*
X70110Y54750D02*
X75796Y49064D01*
X49358Y48250D02*
X50500Y47108D01*
X47500Y33690D02*
X50201D01*
X50500Y33989D01*
Y47108D01*
X29250Y52750D02*
X32000Y50000D01*
X49978D01*
X26860Y48250D02*
X49358D01*
X19860Y55250D02*
X26860Y48250D01*
X29250Y52750D02*
Y58115D01*
X29376Y58241D01*
X11012Y57912D02*
X13919D01*
X11000Y57900D02*
X11012Y57912D01*
X13919D02*
X13931Y57900D01*
X119500Y69750D02*
X122250D01*
X125624D02*
X125650D01*
X122250D02*
X125624D01*
X125127Y69253D02*
X125624Y69750D01*
X125127Y69227D02*
Y69253D01*
X123750Y65075D02*
Y67850D01*
X125127Y69227D01*
X123117Y64442D02*
X123750Y65075D01*
X125650D01*
X121367Y64442D02*
X123117D01*
X121350Y64425D02*
X121367Y64442D01*
X137000Y59000D02*
X137043Y59043D01*
X137793D01*
X142500Y63750D01*
X133000Y59000D02*
X137000D01*
X127750D02*
X133000D01*
X134750Y75250D02*
X134770Y75270D01*
Y81230D01*
X134790Y81250D01*
X134750Y75250D02*
X137750D01*
X132250D02*
X134750D01*
X116000Y59750D02*
X119500D01*
X112000D02*
X116000D01*
X112000Y57650D02*
X112000Y57650D01*
X107250Y57650D02*
X112000D01*
X107250Y57650D02*
X107250Y57650D01*
X112000Y54250D02*
Y57650D01*
X77977Y69727D02*
Y69753D01*
X77333Y69083D02*
X77977Y69727D01*
X77333Y65800D02*
Y69083D01*
X78474Y70250D02*
X78500D01*
X77977Y69753D02*
X78474Y70250D01*
X77333Y65800D02*
X79150D01*
X74850Y65150D02*
X76683D01*
X77333Y65800D01*
X88520Y74520D02*
Y81230D01*
X88500Y74500D02*
X88520Y74520D01*
Y81230D02*
X88540Y81250D01*
X85750Y74500D02*
X88500D01*
X83250D02*
X85750D01*
X91000Y59150D02*
X91900D01*
X96000Y63250D01*
X69000Y60100D02*
X73000D01*
X63798D02*
X69000D01*
X58750Y58000D02*
X63798D01*
Y54750D02*
Y58000D01*
Y54750D02*
X70110D01*
X85500Y59150D02*
X91000D01*
X81400Y59200D02*
X85450D01*
X81350Y59250D02*
X81400Y59200D01*
X85450D02*
X85500Y59150D01*
X79200Y59200D02*
X79250Y59250D01*
X33750Y74250D02*
X36000D01*
X33750Y74250D02*
X33750Y74250D01*
X36000D02*
X36000Y74250D01*
X64750Y79750D02*
X64750Y79750D01*
X37465Y74244D02*
X38750D01*
X22500Y69250D02*
X25100D01*
X28724D01*
X28750D01*
X28227Y68753D02*
X28724Y69250D01*
X28227Y68727D02*
Y68753D01*
X27583Y68083D02*
X28227Y68727D01*
X27583Y64825D02*
Y68083D01*
X26933Y64175D02*
X27583Y64825D01*
X29400D01*
X25100Y64175D02*
X26933D01*
X36500Y58242D02*
X40500D01*
X36492D02*
X36496Y58246D01*
X36500Y58242D01*
X31476D02*
X36492D01*
X21463Y59995D02*
X23250D01*
X36496Y58246D02*
X36500Y58250D01*
X40500Y58242D02*
Y58250D01*
X31476Y58241D02*
Y58242D01*
X36500Y60100D02*
X36525D01*
X13931Y57900D02*
X16000D01*
Y55250D02*
Y57900D01*
Y55250D02*
X19860D01*
X40500Y58250D02*
X41461D01*
X43750Y60539D01*
Y65500D01*
X16000Y60000D02*
X19500D01*
X21458D01*
X21463Y59995D01*
X23250D02*
Y60000D01*
X36000Y74250D02*
X37459D01*
X37465Y74244D01*
X38750D02*
Y74250D01*
Y81250D01*
D43*
X131600Y63750D02*
X131750D01*
X131290Y63290D02*
Y63440D01*
X126111Y63663D02*
X126844Y62929D01*
X130929D01*
X131290Y63440D02*
X131600Y63750D01*
X130929Y62929D02*
X131290Y63290D01*
X125650Y63775D02*
X126073D01*
X126111Y63737D01*
Y63663D02*
Y63737D01*
X124500Y76750D02*
Y79500D01*
X128250Y70339D02*
Y73000D01*
X124500Y76750D02*
X128250Y73000D01*
X10750Y65500D02*
X18000D01*
X30825Y66477D02*
X31052Y66250D01*
X33725D01*
X130400Y65750D02*
X135625D01*
X126073Y65725D02*
X128249Y67901D01*
X115210Y66210D02*
X115500Y66500D01*
X115210Y66060D02*
Y66210D01*
X114750Y65750D02*
X114900D01*
X120152Y66500D02*
X120575D01*
X117000Y69652D02*
X120152Y66500D01*
X114900Y65750D02*
X115210Y66060D01*
X120927Y65725D02*
X121350D01*
X120889Y65763D02*
X120927Y65725D01*
X120152Y66500D02*
X120915Y65737D01*
X120889Y65763D02*
Y66186D01*
X120575Y66500D02*
X120889Y66186D01*
X115500Y66500D02*
X120152D01*
X120889Y63314D02*
Y63737D01*
X115210Y63290D02*
Y63440D01*
X115500Y63000D02*
X120575D01*
X115210Y63290D02*
X115500Y63000D01*
X120575D02*
X120889Y63314D01*
Y63737D02*
X120927Y63775D01*
X110475Y63750D02*
X114900D01*
X120927Y63775D02*
X121350D01*
X114900Y63750D02*
X115210Y63440D01*
X80150Y63500D02*
X83300D01*
X83790Y63990D01*
X79150Y64500D02*
X80150Y63500D01*
X83790Y64140D02*
X84100Y64450D01*
X83790Y63990D02*
Y64140D01*
X84100Y64450D02*
X84400D01*
X79150Y66450D02*
X79950Y67250D01*
X83450D01*
X84100Y66450D02*
X84250D01*
X83790Y66760D02*
X84100Y66450D01*
X83790Y66760D02*
Y66910D01*
X83450Y67250D02*
X83790Y66910D01*
X69150Y64500D02*
X69460Y64190D01*
X74100Y63750D02*
X74389Y64039D01*
Y64462D02*
X74427Y64500D01*
X69460Y64040D02*
Y64190D01*
X64725Y64500D02*
X69150D01*
X69460Y64040D02*
X69750Y63750D01*
X74389Y64039D02*
Y64462D01*
X69750Y63750D02*
X74100D01*
X74427Y64500D02*
X74850D01*
X69555Y70445D02*
X72750Y67250D01*
X69150Y66500D02*
X69460Y66810D01*
Y66960D02*
X69750Y67250D01*
X64250Y66500D02*
X69150D01*
X69460Y66810D02*
Y66960D01*
X69750Y67250D02*
X72750D01*
X73550Y66450D01*
X64250Y64975D02*
X64725Y64500D01*
X29823Y63525D02*
X30598Y62750D01*
X33775D01*
X34040Y63015D01*
X34350Y63475D02*
X34650D01*
X34040Y63165D02*
X34350Y63475D01*
X34040Y63015D02*
Y63165D01*
X29400Y63525D02*
X29425Y63500D01*
X29400Y63525D02*
X29823D01*
X33725Y66250D02*
X34040Y65935D01*
X34350Y65475D02*
X39000D01*
X29823D02*
X30825Y66477D01*
X34040Y65785D02*
X34350Y65475D01*
X34040Y65785D02*
Y65935D01*
X29400Y65475D02*
X29823D01*
X18750Y66250D02*
X23250D01*
X24025Y65475D01*
X18150Y65500D02*
X18460Y65810D01*
Y65960D02*
X18750Y66250D01*
X18460Y65810D02*
Y65960D01*
X20250Y69250D02*
X23250Y66250D01*
X18000Y63500D02*
X18150D01*
X18460Y63040D02*
Y63190D01*
X24325Y62750D02*
X24639Y63064D01*
Y63487D02*
X24677Y63525D01*
X18750Y62750D02*
X24325D01*
X18150Y63500D02*
X18460Y63190D01*
Y63040D02*
X18750Y62750D01*
X24677Y63525D02*
X25100D01*
X24639Y63064D02*
Y63487D01*
X128249Y70338D02*
X128250Y70339D01*
X128249Y67901D02*
Y70338D01*
Y67901D02*
X130400Y65750D01*
X125650Y65725D02*
X126073D01*
X117000Y69652D02*
Y77080D01*
X119420Y79500D01*
X120915Y65737D02*
X120927Y65725D01*
X121350D01*
X131900Y63750D02*
X133420D01*
X131900D02*
X133000Y62650D01*
Y60850D02*
Y62650D01*
X127832Y64750D02*
X128000D01*
X125650Y64425D02*
X127507D01*
X127832Y64750D01*
X133920Y64250D02*
X135625D01*
X133420Y63750D02*
X133920Y64250D01*
X110000Y65750D02*
X110000Y65750D01*
X114750D01*
X114750Y65750D01*
X110000Y64225D02*
X110475Y63750D01*
X110000Y64225D02*
Y64250D01*
X121350Y59750D02*
Y63775D01*
X73550Y66475D02*
X74402D01*
X69555Y70445D02*
Y76305D01*
X74402Y66450D02*
X74850D01*
X74427D02*
X74850D01*
X74402Y66475D02*
X74427Y66450D01*
X69555Y76305D02*
X73000Y79750D01*
X79150Y67483D02*
X80750Y69083D01*
Y73250D01*
X79150Y66450D02*
Y67483D01*
X78080Y75920D02*
Y79750D01*
Y75920D02*
X80750Y73250D01*
X81582Y65500D02*
X81750D01*
X79150Y65150D02*
X81232D01*
X81582Y65500D01*
X64250Y64975D02*
Y65000D01*
X74850Y60100D02*
Y64500D01*
X84950Y65000D02*
X89500D01*
X84400Y64450D02*
X84950Y65000D01*
X84275Y66475D02*
X89475D01*
X84250Y66450D02*
X84275Y66475D01*
X89475D02*
X89500Y66500D01*
X85500Y61000D02*
Y63350D01*
X84400Y64450D02*
X85500Y63350D01*
X28500Y74500D02*
X30825Y72175D01*
Y66477D02*
Y72175D01*
X28500Y74500D02*
Y79750D01*
X29400Y64175D02*
X30500D01*
X30825Y64500D02*
X32000D01*
X30500Y64175D02*
X30825Y64500D01*
X20250Y76580D02*
X23420Y79750D01*
X20250Y69250D02*
Y76580D01*
X24677Y65475D02*
X25100D01*
X24025D02*
X24677D01*
X34650Y63475D02*
X36500Y61625D01*
Y60100D02*
Y61625D01*
X35150Y63975D02*
X39000D01*
X34675Y63500D02*
X35150Y63975D01*
X10750Y64000D02*
X17350D01*
X17838Y63513D01*
X25100Y60000D02*
Y63525D01*
D44*
X99750Y36430D02*
D03*
Y33890D02*
D03*
Y31350D02*
D03*
Y28810D02*
D03*
Y26270D02*
D03*
X153000Y36430D02*
D03*
Y33890D02*
D03*
Y31350D02*
D03*
Y28810D02*
D03*
Y26270D02*
D03*
X46500Y36430D02*
D03*
Y33890D02*
D03*
Y31350D02*
D03*
Y28810D02*
D03*
Y26270D02*
D03*
D45*
X90800Y39250D02*
D03*
Y23450D02*
D03*
X65000Y39250D02*
D03*
Y23450D02*
D03*
X144050Y39250D02*
D03*
Y23450D02*
D03*
X118250Y39250D02*
D03*
Y23450D02*
D03*
X37550Y39250D02*
D03*
Y23450D02*
D03*
X11750Y39250D02*
D03*
Y23450D02*
D03*
D46*
X156000Y80000D02*
D03*
Y5250D02*
D03*
X5000Y80000D02*
D03*
Y5250D02*
D03*
D47*
X132250Y81250D02*
D03*
X134790D02*
D03*
X36210Y81250D02*
D03*
X38750D02*
D03*
X86000Y81250D02*
D03*
X88540D02*
D03*
D48*
X137330D02*
D03*
X41290Y81250D02*
D03*
X91080Y81250D02*
D03*
D49*
X119420Y79500D02*
D03*
X23420Y79750D02*
D03*
X59670Y79750D02*
D03*
X73000D02*
D03*
D50*
X124500Y79500D02*
D03*
X28500Y79750D02*
D03*
X64750Y79750D02*
D03*
X78080D02*
D03*
D51*
X158750Y23750D02*
D03*
X152288Y23714D02*
D03*
X105000Y23750D02*
D03*
X98450Y23700D02*
D03*
X52250Y23750D02*
D03*
X45200Y23700D02*
D03*
X146500Y64500D02*
D03*
X157847Y58250D02*
D03*
X157950Y69750D02*
D03*
X145000Y82250D02*
D03*
X133920Y68500D02*
D03*
X105750Y73000D02*
D03*
X112000Y80250D02*
D03*
X96000Y79250D02*
D03*
X92250Y64500D02*
D03*
X56250Y53500D02*
D03*
X49000Y64000D02*
D03*
X52750Y69750D02*
D03*
X101750Y62500D02*
D03*
X52750Y60250D02*
D03*
X123000Y73000D02*
D03*
X122250Y67850D02*
D03*
X75500Y74000D02*
D03*
X75209Y68311D02*
D03*
X25100Y73000D02*
D03*
X128000Y64750D02*
D03*
X132250Y75250D02*
D03*
X83250Y74500D02*
D03*
X81750Y65500D02*
D03*
X33750Y74250D02*
D03*
X32000Y64500D02*
D03*
D52*
X94750Y68750D02*
D03*
X47700Y55450D02*
D03*
X45750Y59000D02*
D03*
X50000Y80500D02*
D03*
X19250Y82000D02*
D03*
X12500Y73750D02*
D03*
X9000Y70250D02*
D03*
X8500Y53750D02*
D03*
X21500Y48750D02*
D03*
X152802Y44798D02*
D03*
X127491Y48350D02*
D03*
X99366Y42603D02*
D03*
X73646Y47834D02*
D03*
X47250Y43500D02*
D03*
X130250Y56000D02*
D03*
X81681Y54571D02*
D03*
X71915Y65497D02*
D03*
X26000Y54500D02*
D03*
X128750Y61000D02*
D03*
X123000Y56750D02*
D03*
X82750Y61750D02*
D03*
X76250Y56500D02*
D03*
X31676Y53348D02*
D03*
X31250Y60500D02*
D03*
X25464Y67339D02*
D03*
X22055Y64495D02*
D03*
X118266Y64784D02*
D03*
D53*
X135250Y54500D02*
D03*
X85450Y54250D02*
D03*
X36250Y52500D02*
D03*
X119500Y69750D02*
D03*
X142250Y75250D02*
D03*
X72250Y70250D02*
D03*
X93250Y74500D02*
D03*
X22500Y69250D02*
D03*
X43750Y74250D02*
D03*
M02*
